<?xml version="1.0" encoding="UTF-8"?>
<svg version="1.1" xmlns="http://www.w3.org/2000/svg" width="400" height="400">
<path d="M0 0 C132 0 264 0 400 0 C400 132 400 264 400 400 C268 400 136 400 0 400 C0 268 0 136 0 0 Z " fill="#FDFDFE" transform="translate(0,0)"/>
<path d="M0 0 C7.38705927 3.45383154 10.99110438 7.59569484 14.2734375 15.05078125 C14.73443895 17.73222753 15.0935289 20.29116656 15.3359375 22.98828125 C15.71112727 26.89248373 16.07097638 30.44716111 17.32421875 34.18359375 C18.77453001 40.09226923 18.48102568 45.93075568 18.3984375 51.98828125 C18.38941406 53.24447266 18.38039063 54.50066406 18.37109375 55.79492188 C18.34762999 58.88040647 18.31479951 61.9654933 18.2734375 65.05078125 C19.2634375 65.38078125 20.2534375 65.71078125 21.2734375 66.05078125 C21.2734375 67.70078125 21.2734375 69.35078125 21.2734375 71.05078125 C19.9534375 71.38078125 18.6334375 71.71078125 17.2734375 72.05078125 C14.64241763 84.53344016 14.82751219 97.16483413 14.6484375 109.86328125 C14.61018331 112.11655033 14.57112748 114.36980594 14.53125 116.62304688 C14.43606626 122.09883737 14.35079251 127.57471138 14.2734375 133.05078125 C13.2834375 133.05078125 12.2934375 133.05078125 11.2734375 133.05078125 C11.14066406 132.10976562 11.00789062 131.16875 10.87109375 130.19921875 C10.60619141 128.33136719 10.60619141 128.33136719 10.3359375 126.42578125 C10.16191406 125.19601563 9.98789062 123.96625 9.80859375 122.69921875 C9.33569449 119.47521941 8.82192748 116.26265949 8.2734375 113.05078125 C7.6134375 113.05078125 6.9534375 113.05078125 6.2734375 113.05078125 C6.04011719 114.30246094 5.80679688 115.55414063 5.56640625 116.84375 C4.0482986 123.68662359 1.09677196 129.92584887 -1.71289062 136.31835938 C-2.11314453 137.25744141 -2.51339844 138.19652344 -2.92578125 139.1640625 C-3.29533936 140.00751221 -3.66489746 140.85096191 -4.0456543 141.7199707 C-4.81419658 144.35076067 -4.75459696 145.53381187 -3.7265625 148.05078125 C-2.08490214 149.80321108 -0.36426771 151.48265886 1.3984375 153.11328125 C6.71015485 158.24788403 10.88506018 163.42364328 14.2734375 170.05078125 C14.78003906 171.03175781 15.28664063 172.01273438 15.80859375 173.0234375 C19.55215778 181.93916799 19.77419841 190.67572882 19.8359375 200.23828125 C19.85068115 201.50905518 19.8654248 202.7798291 19.88061523 204.08911133 C19.71640447 219.21125146 14.42257119 233.21775638 4.0703125 244.39453125 C-2.1584143 250.13579247 -8.6832883 251.41959268 -16.9140625 251.33203125 C-22.72748294 250.75068921 -26.82381644 247.77073511 -31.3515625 244.30078125 C-33.80349744 242.49821721 -34.85645349 242.02580221 -37.9765625 241.42578125 C-40.9012682 241.79146933 -40.9012682 241.79146933 -42.5390625 244.30078125 C-43.52244825 246.57809562 -44.27636018 248.61968873 -44.7265625 251.05078125 C-45.7165625 251.05078125 -46.7065625 251.05078125 -47.7265625 251.05078125 C-48.0565625 239.83078125 -48.3865625 228.61078125 -48.7265625 217.05078125 C-52.95148231 222.32966403 -52.95148231 222.32966403 -53.5546875 228.4453125 C-53.63203125 229.64736328 -53.709375 230.84941406 -53.7890625 232.08789062 C-53.8509375 233.33376953 -53.9128125 234.57964844 -53.9765625 235.86328125 C-54.05390625 237.12849609 -54.13125 238.39371094 -54.2109375 239.69726562 C-54.39914953 242.81452734 -54.57040596 245.93177649 -54.7265625 249.05078125 C-55.34587646 249.03394287 -55.96519043 249.01710449 -56.60327148 248.99975586 C-68.68584733 248.40560613 -68.68584733 248.40560613 -79.91015625 251.875 C-82.07894499 254.15203488 -83.9008046 256.49388461 -85.7265625 259.05078125 C-86.91635433 260.21734504 -88.14634126 261.34441241 -89.4140625 262.42578125 C-90.06632813 262.98394531 -90.71859375 263.54210937 -91.390625 264.1171875 C-114.31310376 283.09148012 -139.2337915 301.52095945 -170.40332031 299.35253906 C-175.93566661 298.63396193 -180.2730389 296.28247776 -184.7265625 293.05078125 C-185.396875 292.56738281 -186.0671875 292.08398438 -186.7578125 291.5859375 C-196.67310891 283.04051757 -200.403842 269.02078789 -201.3515625 256.55078125 C-201.48354009 254.38452841 -201.61089813 252.21796634 -201.7265625 250.05078125 C-203.3765625 249.72078125 -205.0265625 249.39078125 -206.7265625 249.05078125 C-206.7265625 247.40078125 -206.7265625 245.75078125 -206.7265625 244.05078125 C-206.11167969 244.01339844 -205.49679688 243.97601563 -204.86328125 243.9375 C-204.05503906 243.87175781 -203.24679688 243.80601562 -202.4140625 243.73828125 C-201.21330078 243.65126953 -201.21330078 243.65126953 -199.98828125 243.5625 C-197.24971848 242.94289426 -196.40543724 242.28107526 -194.7265625 240.05078125 C-192.06725814 235.13294007 -192.36755179 230.02932552 -192.3203125 224.58203125 C-192.30321228 223.03594177 -192.30321228 223.03594177 -192.2857666 221.45861816 C-192.26688127 219.26981691 -192.25380443 217.08095898 -192.24609375 214.89208984 C-192.22695002 211.61707564 -192.16501815 208.34472306 -192.1015625 205.0703125 C-191.96597894 191.57408525 -193.61265888 179.93896525 -197.99859619 167.17034912 C-198.93163313 164.45369165 -199.76324938 161.70925598 -200.59765625 158.9609375 C-201.11657312 157.34401562 -201.63861695 155.72809333 -202.1640625 154.11328125 C-202.7539289 152.27735103 -203.34377193 150.4414133 -203.93359375 148.60546875 C-204.22830566 147.69249023 -204.52301758 146.77951172 -204.82666016 145.83886719 C-206.34290948 141.14120923 -207.84952175 136.44049985 -209.3515625 131.73828125 C-209.64393799 130.82449707 -209.93631348 129.91071289 -210.23754883 128.96923828 C-212.03118732 123.33237834 -213.72126912 117.67420504 -215.3515625 111.98828125 C-218.7602118 97.75903284 -218.7602118 97.75903284 -227.7265625 87.05078125 C-228.7165625 86.72078125 -229.7065625 86.39078125 -230.7265625 86.05078125 C-230.7265625 84.40078125 -230.7265625 82.75078125 -230.7265625 81.05078125 C-215.5465625 81.05078125 -200.3665625 81.05078125 -184.7265625 81.05078125 C-184.7265625 82.70078125 -184.7265625 84.35078125 -184.7265625 86.05078125 C-187.3665625 86.38078125 -190.0065625 86.71078125 -192.7265625 87.05078125 C-193.62715731 92.04498884 -194.00179496 95.89912185 -192.57421875 100.79296875 C-192.29618408 101.75468994 -192.01814941 102.71641113 -191.73168945 103.70727539 C-191.39999756 104.81063232 -191.06830566 105.91398926 -190.7265625 107.05078125 C-190.53975922 107.67653046 -190.35295593 108.30227966 -190.16049194 108.94699097 C-188.62272135 114.09300727 -187.05170745 119.22860612 -185.4765625 124.36328125 C-184.98650784 125.96677719 -184.49651808 127.57029296 -184.0065918 129.17382812 C-180.98443087 139.04778425 -177.91387298 148.90465304 -174.65722656 158.7043457 C-174.39780273 159.49929443 -174.13837891 160.29424316 -173.87109375 161.11328125 C-173.53621948 162.12068359 -173.53621948 162.12068359 -173.19458008 163.1484375 C-172.7265625 165.05078125 -172.7265625 165.05078125 -172.7265625 169.05078125 C-172.0665625 169.05078125 -171.4065625 169.05078125 -170.7265625 169.05078125 C-170.6440625 167.93703125 -170.5615625 166.82328125 -170.4765625 165.67578125 C-169.94580805 161.40731939 -168.5555331 157.86224932 -166.87158203 153.92724609 C-165.71716724 151.02717892 -164.79625367 148.13296097 -163.91015625 145.140625 C-161.48594339 137.14552018 -158.71978658 129.27956501 -155.93017578 121.40576172 C-150.28510489 106.62359399 -150.28510489 106.62359399 -149.7265625 91.05078125 C-152.15312845 88.26472405 -155.28449082 87.29375158 -158.7265625 86.05078125 C-158.7265625 84.73078125 -158.7265625 83.41078125 -158.7265625 82.05078125 C-147.1765625 82.05078125 -135.6265625 82.05078125 -123.7265625 82.05078125 C-122.7365625 80.07078125 -122.7365625 80.07078125 -121.7265625 78.05078125 C-119.41530476 75.46160972 -117.04770384 72.95800132 -114.62695312 70.47265625 C-111.73711044 67.53209406 -111.73711044 67.53209406 -110.19921875 63.80078125 C-109.96525391 62.93453125 -109.96525391 62.93453125 -109.7265625 62.05078125 C-108.06425309 61.37332302 -106.39655342 60.70907643 -104.7265625 60.05078125 C-102.58653769 58.15713145 -100.56247168 56.24792176 -98.5390625 54.23828125 C-82.12349031 38.54236211 -56.46765126 18.86328125 -32.5390625 18.86328125 C-31.2809375 18.92515625 -30.0228125 18.98703125 -28.7265625 19.05078125 C-28.6440625 18.01953125 -28.5615625 16.98828125 -28.4765625 15.92578125 C-27.23701827 9.52146937 -24.02060281 5.70619004 -18.7265625 2.05078125 C-12.7798177 -1.82151769 -6.66375261 -2.31990241 0 0 Z " fill="#DDB972" transform="translate(279.7265625,46.94921875)"/>
<path d="M0 0 C132 0 264 0 400 0 C400 132 400 264 400 400 C268 400 136 400 0 400 C0 268 0 136 0 0 Z M60.5625 62.6875 C59.72960449 63.45308228 59.72960449 63.45308228 58.87988281 64.23413086 C27.53715734 93.68029201 3.47664759 140.46058929 1.85473633 183.88964844 C1.84172945 185.29618418 1.83441551 186.70278114 1.83203125 188.109375 C1.8278418 188.86986145 1.82365234 189.6303479 1.81933594 190.41387939 C1.80961282 192.85930637 1.80953601 195.304557 1.8125 197.75 C1.81277191 198.58225098 1.81304382 199.41450195 1.81332397 200.27197266 C1.88105811 245.17374242 15.73418165 289.95095435 46 324 C46.680625 324.78890625 47.36125 325.5778125 48.0625 326.390625 C58.36266755 338.12978655 69.24101188 348.96751763 82 358 C82.8355542 358.60207275 82.8355542 358.60207275 83.68798828 359.21630859 C105.07474803 374.52721542 129.26932753 385.52254636 155 391 C156.25167969 391.27457031 157.50335938 391.54914063 158.79296875 391.83203125 C172.65389584 394.74785322 186.2125597 396.3933905 200.375 396.375 C201.06154663 396.37478851 201.74809326 396.37457703 202.45544434 396.37435913 C215.915958 396.33343216 228.81889807 394.78046116 242 392 C242.85916016 391.82871582 243.71832031 391.65743164 244.60351562 391.48095703 C277.49236027 384.8096228 308.46688462 368.58615453 333.46630859 346.36181641 C334.9841462 345.01407712 336.51670915 343.68466958 338.05078125 342.35546875 C372.77899609 311.85884311 395.35472819 265.98567216 399 220 C399.14290006 216.82235605 399.18644988 213.64935183 399.203125 210.46875 C399.20882507 209.59335571 399.21452515 208.71796143 399.22039795 207.81604004 C399.22977454 205.97405171 399.23635238 204.13204717 399.24023438 202.29003906 C399.24988033 199.534191 399.28095027 196.77910953 399.3125 194.0234375 C399.40446905 178.76555882 397.6633901 164.23895474 393.3125 149.5625 C393.05831299 148.69399414 392.80412598 147.82548828 392.54223633 146.93066406 C378.20645781 99.61100961 344.58222415 57.07744505 301.16943359 33.14599609 C293.5907856 29.14260045 285.79635342 25.55542415 278 22 C277.21713623 21.63849854 276.43427246 21.27699707 275.62768555 20.90454102 C263.82534436 15.53116841 251.42575059 12.7321492 238.75 10.25 C237.68595947 10.03931885 236.62191895 9.8286377 235.52563477 9.61157227 C171.73019342 -2.39588184 107.66656191 19.34093741 60.5625 62.6875 Z " fill="#FEFEFE" transform="translate(0,0)"/>
<path d="M0 0 C1.24136719 0.20133545 1.24136719 0.20133545 2.5078125 0.40673828 C11.87777585 1.96667134 21.12324119 3.85234748 30.25 6.5 C30.90427979 6.68925049 31.55855957 6.87850098 32.23266602 7.07348633 C37.35169097 8.6370324 42.14817307 10.75321919 47 13 C47.92876953 13.4237793 48.85753906 13.84755859 49.81445312 14.28417969 C62.88272374 20.28335655 75.47190656 26.35476992 87 35 C87.58249512 35.43135254 88.16499023 35.86270508 88.76513672 36.30712891 C124.17193026 62.71039803 148.88718457 97.79459405 162 140 C162.28746094 140.91007813 162.57492187 141.82015625 162.87109375 142.7578125 C167.44897065 158.27041092 168.51657333 173.73902694 168.375 189.8125 C168.37101196 190.73310211 168.36702393 191.65370422 168.36291504 192.60220337 C168.29531233 205.9082371 167.94226426 218.96906668 165 232 C164.58234375 233.91425781 164.58234375 233.91425781 164.15625 235.8671875 C163.23451166 239.62565503 162.17413015 243.31473479 161 247 C160.75765625 247.76666992 160.5153125 248.53333984 160.265625 249.32324219 C156.4802862 261.11067587 151.89984236 272.12351799 146 283 C145.38511719 284.16789062 144.77023437 285.33578125 144.13671875 286.5390625 C120.06544761 330.69464475 76.60881323 364.31911902 28.625 378.6875 C22.59456344 380.41717636 16.50673973 381.86537087 10.375 383.1875 C9.66037598 383.3424292 8.94575195 383.4973584 8.20947266 383.65698242 C-4.23520119 386.21012804 -16.61516106 387.38996863 -29.3125 387.375 C-29.99510895 387.37545319 -30.6777179 387.37590637 -31.38101196 387.37637329 C-45.17200749 387.34980105 -58.4661582 385.6644267 -72 383 C-73.86011719 382.6596875 -73.86011719 382.6596875 -75.7578125 382.3125 C-110.94039292 375.11401807 -143.13585617 356.54967314 -169 332 C-169.52029785 331.51225098 -170.0405957 331.02450195 -170.57666016 330.52197266 C-205.00249411 298.06219441 -227.59947182 251.36754041 -229.14599609 203.86425781 C-229.62906844 186.4078929 -229.97034944 169.1561757 -225.546875 152.13476562 C-225.01581012 150.06171595 -224.56052661 147.98558863 -224.125 145.890625 C-217.13941857 113.45558044 -198.57369354 83.70505846 -176.3125 59.5625 C-175.80243408 59.00771973 -175.29236816 58.45293945 -174.7668457 57.88134766 C-152.45741579 34.12880656 -122.71275582 17.18003482 -92 7 C-91.28150879 6.76152344 -90.56301758 6.52304688 -89.82275391 6.27734375 C-61.13144594 -2.99286884 -29.71788996 -4.90687678 0 0 Z M-156.42529297 63.47216797 C-157.98291256 64.98342121 -159.55536424 66.47801324 -161.12890625 67.97265625 C-176.6288328 82.88011931 -187.92404446 100.60063616 -197 120 C-197.5465625 121.15242188 -198.093125 122.30484375 -198.65625 123.4921875 C-204.07371098 135.46035385 -207.36589323 148.15776014 -210 161 C-210.18353027 161.86109375 -210.36706055 162.7221875 -210.55615234 163.609375 C-212.29559457 172.66630963 -212.39701204 181.62427733 -212.375 190.8125 C-212.37478851 191.62714722 -212.37457703 192.44179443 -212.37435913 193.28112793 C-212.33927776 206.85412803 -211.29521271 219.78665733 -208 233 C-207.81808105 233.75539062 -207.63616211 234.51078125 -207.44873047 235.2890625 C-195.89541926 282.03919045 -164.6613822 321.73665136 -123.75 346.4375 C-103.79251633 358.15749252 -81.11936407 367.20973192 -58 370 C-57.26313965 370.09063721 -56.5262793 370.18127441 -55.76708984 370.2746582 C-47.54705389 371.16261051 -39.33418021 371.1861292 -31.07617188 371.18530273 C-28.6365412 371.18748965 -26.1973637 371.20571144 -23.7578125 371.22460938 C-14.64579272 371.25739038 -5.97693785 370.74981184 3 369 C4.86591797 368.66548828 4.86591797 368.66548828 6.76953125 368.32421875 C15.72431234 366.4504969 24.32766096 363.87561294 33 361 C33.90878906 360.71640625 34.81757813 360.4328125 35.75390625 360.140625 C51.26377176 354.99494192 65.84082736 346.58845332 79 337 C79.56847656 336.59233398 80.13695312 336.18466797 80.72265625 335.76464844 C113.54378991 312.00857732 137.9666606 276.1109141 148.125 236.875 C148.37636719 235.9571875 148.62773437 235.039375 148.88671875 234.09375 C152.55176433 220.08598418 153.3860817 206.08629702 153.3125 191.6875 C153.31034485 190.92242126 153.3081897 190.15734253 153.30596924 189.36907959 C153.25329516 177.68487398 152.77518042 166.38964459 150 155 C149.71793701 153.7939209 149.71793701 153.7939209 149.43017578 152.56347656 C144.60810394 132.48493718 136.508446 113.16962198 125 96 C124.60844727 95.40928711 124.21689453 94.81857422 123.81347656 94.20996094 C118.35932434 86.05729988 112.34414185 78.6134586 105.51123047 71.5625 C104.46968571 70.48562012 103.43524412 69.40183993 102.40673828 68.3125 C75.31122463 39.62407432 37.59882882 19.75697833 -1.79907227 15.29980469 C-4.28819034 14.96074346 -6.72224144 14.45873663 -9.18359375 13.95703125 C-61.05798996 4.36111953 -119.35586678 27.49872728 -156.42529297 63.47216797 Z " fill="#2E4B9E" transform="translate(231,9)"/>
<path d="M0 0 C7.38705927 3.45383154 10.99110438 7.59569484 14.2734375 15.05078125 C14.73443895 17.73222753 15.0935289 20.29116656 15.3359375 22.98828125 C15.71112727 26.89248373 16.07097638 30.44716111 17.32421875 34.18359375 C18.77453001 40.09226923 18.48102568 45.93075568 18.3984375 51.98828125 C18.38941406 53.24447266 18.38039063 54.50066406 18.37109375 55.79492188 C18.34762999 58.88040647 18.31479951 61.9654933 18.2734375 65.05078125 C19.2634375 65.38078125 20.2534375 65.71078125 21.2734375 66.05078125 C21.2734375 67.70078125 21.2734375 69.35078125 21.2734375 71.05078125 C19.9534375 71.38078125 18.6334375 71.71078125 17.2734375 72.05078125 C14.64241763 84.53344016 14.82751219 97.16483413 14.6484375 109.86328125 C14.61018331 112.11655033 14.57112748 114.36980594 14.53125 116.62304688 C14.43606626 122.09883737 14.35079251 127.57471138 14.2734375 133.05078125 C13.2834375 133.05078125 12.2934375 133.05078125 11.2734375 133.05078125 C11.15226563 132.13296875 11.03109375 131.21515625 10.90625 130.26953125 C10.65488281 128.42875 10.65488281 128.42875 10.3984375 126.55078125 C10.15480469 124.7409375 10.15480469 124.7409375 9.90625 122.89453125 C9.44523694 120.09430379 8.88557493 117.7508322 8.0625 115.078125 C6.92874073 110.69475078 8.00571317 107.27205375 9.5234375 103.11328125 C12.85135293 93.04529816 14.50012462 82.68446812 14.2734375 72.05078125 C12.6234375 72.05078125 10.9734375 72.05078125 9.2734375 72.05078125 C9.6034375 71.06078125 9.9334375 70.07078125 10.2734375 69.05078125 C9.9434375 68.06078125 9.6134375 67.07078125 9.2734375 66.05078125 C9.2734375 64.73078125 9.2734375 63.41078125 9.2734375 62.05078125 C10.9234375 62.05078125 12.5734375 62.05078125 14.2734375 62.05078125 C13.9434375 63.04078125 13.6134375 64.03078125 13.2734375 65.05078125 C13.2734375 65.71078125 13.2734375 66.37078125 13.2734375 67.05078125 C13.6034375 67.38078125 13.9334375 67.71078125 14.2734375 68.05078125 C16.11070146 62.56094869 16.62334957 57.69951617 16.5859375 51.92578125 C16.58464844 51.09844482 16.58335937 50.2711084 16.58203125 49.41870117 C16.47189253 42.31268834 15.33063386 35.8713668 13.2734375 29.05078125 C12.6753125 29.97890625 12.0771875 30.90703125 11.4609375 31.86328125 C9.2734375 35.05078125 9.2734375 35.05078125 7.6171875 36.26953125 C5.43332586 39.16441761 6.22483323 42.31577969 6.5859375 45.73828125 C6.64716797 46.44017578 6.70839844 47.14207031 6.77148438 47.86523438 C6.92446374 49.59507795 7.09706352 51.32316622 7.2734375 53.05078125 C5.48275177 50.36475265 4.61287959 48.38812235 3.6484375 45.36328125 C3.38804687 44.55503906 3.12765625 43.74679688 2.859375 42.9140625 C2.66601562 42.29917969 2.47265625 41.68429688 2.2734375 41.05078125 C1.73074219 41.20804688 1.18804687 41.3653125 0.62890625 41.52734375 C-5.81569433 42.95947721 -12.6074274 43.07473 -18.6015625 40.11328125 C-24.38038294 36.41483617 -27.97583141 31.10732927 -29.6015625 24.48828125 C-29.6428125 23.68390625 -29.6840625 22.87953125 -29.7265625 22.05078125 C-55.14259682 22.95205906 -76.31972665 38.00589569 -95.1015625 53.92578125 C-95.72619385 54.44873779 -96.3508252 54.97169434 -96.99438477 55.51049805 C-102.39011153 60.22041 -104.86868963 64.84464915 -105.7265625 72.05078125 C-106.3865625 72.05078125 -107.0465625 72.05078125 -107.7265625 72.05078125 C-107.7265625 70.40078125 -107.7265625 68.75078125 -107.7265625 67.05078125 C-108.94074309 68.06465286 -110.14753265 69.08737567 -111.3515625 70.11328125 C-112.36089844 70.96599609 -112.36089844 70.96599609 -113.390625 71.8359375 C-116.39629044 74.68579085 -119.03102196 77.90598396 -121.7265625 81.05078125 C-90.0465625 81.54578125 -90.0465625 81.54578125 -57.7265625 82.05078125 C-57.7265625 98.22078125 -57.7265625 114.39078125 -57.7265625 131.05078125 C-58.7165625 131.05078125 -59.7065625 131.05078125 -60.7265625 131.05078125 C-60.99919922 129.38402344 -60.99919922 129.38402344 -61.27734375 127.68359375 C-63.44991025 109.82483044 -63.44991025 109.82483044 -73.46484375 95.76953125 C-82.31098048 90.46563771 -89.71792153 91.66237242 -100.7265625 91.05078125 C-100.7265625 113.49078125 -100.7265625 135.93078125 -100.7265625 159.05078125 C-92.61003611 157.37954903 -92.61003611 157.37954903 -87.7265625 152.05078125 C-82.35752581 142.16248346 -81.98807531 130.03379083 -80.7265625 119.05078125 C-79.7365625 119.05078125 -78.7465625 119.05078125 -77.7265625 119.05078125 C-77.7265625 148.09078125 -77.7265625 177.13078125 -77.7265625 207.05078125 C-78.7165625 207.05078125 -79.7065625 207.05078125 -80.7265625 207.05078125 C-80.83613281 206.1071875 -80.94570312 205.16359375 -81.05859375 204.19140625 C-82.82845658 187.01997787 -82.82845658 187.01997787 -90.7265625 172.05078125 C-94.17106987 169.75444301 -96.66468533 169.5106164 -100.7265625 169.05078125 C-100.66529219 177.3092308 -100.58814402 185.56731565 -100.49084759 193.8254118 C-100.44616266 197.66019772 -100.40690266 201.49487788 -100.38012695 205.32983398 C-100.35407483 209.0323582 -100.31365962 212.73447497 -100.26337624 216.4367466 C-100.24672029 217.84764339 -100.23519806 219.25861064 -100.22894859 220.6695919 C-100.21929461 222.64922673 -100.18952299 224.62873225 -100.15893555 226.6081543 C-100.14228096 228.2969294 -100.14228096 228.2969294 -100.12528992 230.01982117 C-99.67959869 233.40778058 -98.75607236 235.3241721 -96.7265625 238.05078125 C-94.82830162 238.81794747 -94.82830162 238.81794747 -92.71484375 238.7578125 C-91.95751953 238.78681641 -91.20019531 238.81582031 -90.41992188 238.84570312 C-89.24139648 238.8544043 -89.24139648 238.8544043 -88.0390625 238.86328125 C-87.24177734 238.88841797 -86.44449219 238.91355469 -85.62304688 238.93945312 C-83.6580823 238.9982844 -81.69226859 239.02740529 -79.7265625 239.05078125 C-80.66246754 240.15630015 -81.60036108 241.26013578 -82.5390625 242.36328125 C-83.06113281 242.97816406 -83.58320313 243.59304688 -84.12109375 244.2265625 C-84.65089844 244.82855469 -85.18070313 245.43054688 -85.7265625 246.05078125 C-86.156772 246.57638138 -86.58698151 247.10198151 -87.03022766 247.64350891 C-89.27798513 249.50823917 -90.57672387 249.41416581 -93.47338867 249.39135742 C-94.43415817 249.39113083 -95.39492767 249.39090424 -96.3848114 249.39067078 C-97.41926895 249.37518692 -98.4537265 249.35970306 -99.51953125 249.34375 C-100.58069656 249.33950516 -101.64186188 249.33526031 -102.73518372 249.33088684 C-106.12840015 249.31407831 -109.52102522 249.27642144 -112.9140625 249.23828125 C-115.21288206 249.22323725 -117.51171091 249.20954836 -119.81054688 249.19726562 C-125.44942092 249.1641677 -131.08794947 249.11394655 -136.7265625 249.05078125 C-136.7265625 247.40078125 -136.7265625 245.75078125 -136.7265625 244.05078125 C-135.80423828 243.93863281 -135.80423828 243.93863281 -134.86328125 243.82421875 C-134.05503906 243.69273437 -133.24679688 243.56125 -132.4140625 243.42578125 C-131.61355469 243.30976563 -130.81304687 243.19375 -129.98828125 243.07421875 C-126.62654755 241.55301973 -126.11941879 239.39594981 -124.7265625 236.05078125 C-124.28552962 233.06172923 -124.28552962 233.06172923 -124.3523407 229.92060852 C-124.34532639 228.71347198 -124.33831207 227.50633545 -124.33108521 226.26261902 C-124.33872894 224.9517482 -124.34637268 223.64087738 -124.35424805 222.2902832 C-124.35181813 220.88541393 -124.34809687 219.48054638 -124.34318542 218.07568359 C-124.33380264 214.27214685 -124.34317833 210.46886861 -124.35651755 206.66535211 C-124.36785285 202.68292225 -124.36372311 198.70050472 -124.36177063 194.71806335 C-124.36088862 188.03424872 -124.37195114 181.3505357 -124.39038086 174.66674805 C-124.41157305 166.9367901 -124.41505231 159.2069807 -124.4088189 151.47699958 C-124.4031281 144.03924936 -124.40876586 136.60155149 -124.41999245 129.16380882 C-124.42463956 125.99839498 -124.42551184 122.83301315 -124.4234066 119.66759682 C-124.42152544 115.94358596 -124.42961416 112.21972672 -124.445467 108.49575043 C-124.45174424 106.47462926 -124.44819909 104.45348512 -124.44439697 102.43235779 C-124.45148178 101.23368073 -124.45856659 100.03500366 -124.46586609 98.80000305 C-124.46791896 97.75603017 -124.46997183 96.71205729 -124.47208691 95.63644886 C-124.54521988 92.81304531 -124.54521988 92.81304531 -126.7265625 90.05078125 C-127.6546875 90.51484375 -127.6546875 90.51484375 -128.6015625 90.98828125 C-129.9765625 91.67578125 -131.3515625 92.36328125 -132.7265625 93.05078125 C-131.7265625 91.05078125 -130.7265625 89.05078125 -129.7265625 87.05078125 C-134.1967605 88.41667508 -136.21373029 90.11401078 -138.7265625 94.05078125 C-139.88756457 97.00786346 -140.84880821 99.99859019 -141.7265625 103.05078125 C-140.7365625 102.39078125 -139.7465625 101.73078125 -138.7265625 101.05078125 C-139.80027538 104.27191989 -141.02576995 106.44447527 -143.1015625 109.17578125 C-146.44535057 113.69972981 -147.9958569 118.74964362 -149.7265625 124.05078125 C-150.198396 125.46902398 -150.67113126 126.88696688 -151.14453125 128.3046875 C-151.40298828 129.08005859 -151.66144531 129.85542969 -151.92773438 130.65429688 C-154.26953125 137.6796875 -154.26953125 137.6796875 -155.03108215 139.95748901 C-155.61327312 141.70857924 -156.1900931 143.46146562 -156.76115417 145.21621704 C-158.32412386 149.98843676 -159.95402804 154.69773756 -161.82470703 159.35864258 C-167.68933237 174.45765104 -168.83710543 188.19934109 -168.49487305 204.31201172 C-168.41282795 208.2348085 -168.39228068 212.1545407 -168.38085938 216.078125 C-168.35765026 218.59248249 -168.33108641 221.10681178 -168.30078125 223.62109375 C-168.29116867 224.78351593 -168.28155609 225.94593811 -168.27165222 227.14358521 C-168.09617779 235.01884064 -168.09617779 235.01884064 -164.7265625 242.05078125 C-162.43026256 243.19893122 -160.64958164 243.35847934 -158.1015625 243.61328125 C-157.28429687 243.69707031 -156.46703125 243.78085937 -155.625 243.8671875 C-154.99851562 243.92777344 -154.37203125 243.98835937 -153.7265625 244.05078125 C-153.7265625 245.70078125 -153.7265625 247.35078125 -153.7265625 249.05078125 C-171.2165625 249.05078125 -188.7065625 249.05078125 -206.7265625 249.05078125 C-206.7265625 247.40078125 -206.7265625 245.75078125 -206.7265625 244.05078125 C-206.11167969 244.01339844 -205.49679688 243.97601563 -204.86328125 243.9375 C-204.05503906 243.87175781 -203.24679688 243.80601562 -202.4140625 243.73828125 C-201.21330078 243.65126953 -201.21330078 243.65126953 -199.98828125 243.5625 C-197.24971848 242.94289426 -196.40543724 242.28107526 -194.7265625 240.05078125 C-192.06725814 235.13294007 -192.36755179 230.02932552 -192.3203125 224.58203125 C-192.30321228 223.03594177 -192.30321228 223.03594177 -192.2857666 221.45861816 C-192.26688127 219.26981691 -192.25380443 217.08095898 -192.24609375 214.89208984 C-192.22695002 211.61707564 -192.16501815 208.34472306 -192.1015625 205.0703125 C-191.96597894 191.57408525 -193.61265888 179.93896525 -197.99859619 167.17034912 C-198.93163313 164.45369165 -199.76324938 161.70925598 -200.59765625 158.9609375 C-201.11657312 157.34401562 -201.63861695 155.72809333 -202.1640625 154.11328125 C-202.7539289 152.27735103 -203.34377193 150.4414133 -203.93359375 148.60546875 C-204.22830566 147.69249023 -204.52301758 146.77951172 -204.82666016 145.83886719 C-206.34290948 141.14120923 -207.84952175 136.44049985 -209.3515625 131.73828125 C-209.64393799 130.82449707 -209.93631348 129.91071289 -210.23754883 128.96923828 C-212.03118732 123.33237834 -213.72126912 117.67420504 -215.3515625 111.98828125 C-218.7602118 97.75903284 -218.7602118 97.75903284 -227.7265625 87.05078125 C-228.7165625 86.72078125 -229.7065625 86.39078125 -230.7265625 86.05078125 C-230.7265625 84.40078125 -230.7265625 82.75078125 -230.7265625 81.05078125 C-215.5465625 81.05078125 -200.3665625 81.05078125 -184.7265625 81.05078125 C-184.7265625 82.70078125 -184.7265625 84.35078125 -184.7265625 86.05078125 C-187.3665625 86.38078125 -190.0065625 86.71078125 -192.7265625 87.05078125 C-193.62715731 92.04498884 -194.00179496 95.89912185 -192.57421875 100.79296875 C-192.29618408 101.75468994 -192.01814941 102.71641113 -191.73168945 103.70727539 C-191.39999756 104.81063232 -191.06830566 105.91398926 -190.7265625 107.05078125 C-190.53975922 107.67653046 -190.35295593 108.30227966 -190.16049194 108.94699097 C-188.62272135 114.09300727 -187.05170745 119.22860612 -185.4765625 124.36328125 C-184.98650784 125.96677719 -184.49651808 127.57029296 -184.0065918 129.17382812 C-180.98443087 139.04778425 -177.91387298 148.90465304 -174.65722656 158.7043457 C-174.39780273 159.49929443 -174.13837891 160.29424316 -173.87109375 161.11328125 C-173.53621948 162.12068359 -173.53621948 162.12068359 -173.19458008 163.1484375 C-172.7265625 165.05078125 -172.7265625 165.05078125 -172.7265625 169.05078125 C-172.0665625 169.05078125 -171.4065625 169.05078125 -170.7265625 169.05078125 C-170.6440625 167.93703125 -170.5615625 166.82328125 -170.4765625 165.67578125 C-169.94580805 161.40731939 -168.5555331 157.86224932 -166.87158203 153.92724609 C-165.71716724 151.02717892 -164.79625367 148.13296097 -163.91015625 145.140625 C-161.48594339 137.14552018 -158.71978658 129.27956501 -155.93017578 121.40576172 C-150.28510489 106.62359399 -150.28510489 106.62359399 -149.7265625 91.05078125 C-152.15312845 88.26472405 -155.28449082 87.29375158 -158.7265625 86.05078125 C-158.7265625 84.73078125 -158.7265625 83.41078125 -158.7265625 82.05078125 C-147.1765625 82.05078125 -135.6265625 82.05078125 -123.7265625 82.05078125 C-122.7365625 80.07078125 -122.7365625 80.07078125 -121.7265625 78.05078125 C-119.41530476 75.46160972 -117.04770384 72.95800132 -114.62695312 70.47265625 C-111.73711044 67.53209406 -111.73711044 67.53209406 -110.19921875 63.80078125 C-109.96525391 62.93453125 -109.96525391 62.93453125 -109.7265625 62.05078125 C-108.06425309 61.37332302 -106.39655342 60.70907643 -104.7265625 60.05078125 C-102.58653769 58.15713145 -100.56247168 56.24792176 -98.5390625 54.23828125 C-82.12349031 38.54236211 -56.46765126 18.86328125 -32.5390625 18.86328125 C-31.2809375 18.92515625 -30.0228125 18.98703125 -28.7265625 19.05078125 C-28.6440625 18.01953125 -28.5615625 16.98828125 -28.4765625 15.92578125 C-27.23701827 9.52146937 -24.02060281 5.70619004 -18.7265625 2.05078125 C-12.7798177 -1.82151769 -6.66375261 -2.31990241 0 0 Z " fill="#495FA6" transform="translate(279.7265625,46.94921875)"/>
<path d="M0 0 C0.24234375 0.58007812 0.4846875 1.16015625 0.734375 1.7578125 C5.01067668 11.90646265 5.01067668 11.90646265 13.578125 18.31640625 C19.47425237 19.98063575 26.13456687 19.71773399 32 18 C36.50234478 26.18608141 37.33846428 33.59236685 37.25 42.75 C37.24613281 43.71631348 37.24226562 44.68262695 37.23828125 45.67822266 C37.15427568 52.62618312 36.60220493 59.21923984 35 66 C31.5890019 65.37349014 29.37743664 64.05783637 26.5625 62.0625 C20.08957228 57.4807929 14.85724578 56.23524452 7 57 C-0.83811916 59.25844111 -5.76113639 64.52267357 -9.75 71.4375 C-17.865809 87.13518319 -19.43350371 108.63220101 -14.20678711 125.53100586 C-11.56093696 132.7329915 -7.87662171 139.07248402 -3 145 C-2.195625 146.03125 -1.39125 147.0625 -0.5625 148.125 C0.2109375 149.053125 0.2109375 149.053125 1 150 C-0.66315623 154.79214507 -3.24655657 158.8614273 -5.9375 163.125 C-6.38029297 163.84042969 -6.82308594 164.55585938 -7.27929688 165.29296875 C-7.71177734 165.98261719 -8.14425781 166.67226562 -8.58984375 167.3828125 C-8.98034912 168.00559082 -9.37085449 168.62836914 -9.77319336 169.27001953 C-11.03553836 171.05011439 -12.41570252 172.50427642 -14 174 C-15 173 -15 173 -15.0625 169.4375 C-15.041875 168.303125 -15.02125 167.16875 -15 166 C-15.99 166 -16.98 166 -18 166 C-17.95359375 167.03640625 -17.9071875 168.0728125 -17.859375 169.140625 C-17.82184725 170.51038779 -17.78544816 171.88018182 -17.75 173.25 C-17.71648437 173.93191406 -17.68296875 174.61382812 -17.6484375 175.31640625 C-17.5784295 178.92181813 -17.70848281 180.64068812 -20.015625 183.484375 C-20.67046875 183.98453125 -21.3253125 184.4846875 -22 185 C-22 181.37 -22 177.74 -22 174 C-22.99 174 -23.98 174 -25 174 C-24.9175 174.886875 -24.835 175.77375 -24.75 176.6875 C-24.78887968 186.25190044 -28.69412745 195.02219021 -35 202 C-35.88561576 203.0154514 -36.77101448 204.03109211 -37.65625 205.046875 C-38.62280398 206.13736706 -39.59156639 207.22590557 -40.5625 208.3125 C-41.02148682 208.8288501 -41.48047363 209.3452002 -41.95336914 209.87719727 C-45.98335518 214.27098645 -48.85962309 216.71968668 -54.84765625 217.50390625 C-56.25229028 217.53944994 -57.65742164 217.55863636 -59.0625 217.5625 C-60.12307617 217.61760742 -60.12307617 217.61760742 -61.20507812 217.67382812 C-63.28515625 217.69140625 -63.28515625 217.69140625 -67 217 C-70.50876022 212.80716418 -71.49690717 209.85875708 -71.45410156 204.44384766 C-71.45364838 202.52253525 -71.45364838 202.52253525 -71.45318604 200.56240845 C-71.43276412 199.17962002 -71.41190021 197.79683806 -71.390625 196.4140625 C-71.38315674 194.9877502 -71.37746657 193.56142758 -71.37347412 192.13510132 C-71.35826348 188.39645638 -71.31902257 184.65844143 -71.2746582 180.92004395 C-71.23360585 177.09912638 -71.21544196 173.27810618 -71.1953125 169.45703125 C-71.1525226 161.97106819 -71.08432835 154.48562265 -71 147 C-64.390625 146.78125 -64.390625 146.78125 -60.875 148.75 C-53.77225907 155.45392392 -51.23517745 167.63398974 -50.88671875 177.06640625 C-50.87657095 179.71498196 -50.90942352 182.35315398 -51 185 C-50.01 185 -49.02 185 -48 185 C-48 155.96 -48 126.92 -48 97 C-48.99 97 -49.98 97 -51 97 C-51.03738281 98.01578125 -51.07476562 99.0315625 -51.11328125 100.078125 C-51.60976605 111.23203018 -52.28236601 123.59078875 -59 133 C-63.49062338 136.9048899 -64.7651602 137 -71 137 C-71 114.56 -71 92.12 -71 69 C-48.58333333 69 -48.58333333 69 -42.3125 74.25 C-41.549375 75.1575 -40.78625 76.065 -40 77 C-39.56816406 77.49242187 -39.13632813 77.98484375 -38.69140625 78.4921875 C-31.69559836 87.16948038 -31.45289753 98.3022481 -31 109 C-30.01 109 -29.02 109 -28 109 C-28 92.83 -28 76.66 -28 60 C-49.45 60 -70.9 60 -93 60 C-86.16964286 50.89285714 -86.16964286 50.89285714 -83.25 48 C-82.67765625 47.4225 -82.1053125 46.845 -81.515625 46.25 C-80 45 -80 45 -78 45 C-78 46.65 -78 48.3 -78 50 C-77.34 50 -76.68 50 -76 50 C-76.061875 49.13375 -76.12375 48.2675 -76.1875 47.375 C-75.8248736 40.84772488 -72.45414831 37.06037163 -67.75 32.8125 C-53.36664765 19.94691102 -36.6118083 7.67594154 -18 2 C-17.030625 1.5875 -16.06125 1.175 -15.0625 0.75 C-10.09701381 -0.46603743 -5.08601992 -0.1481365 0 0 Z " fill="#FBFBFC" transform="translate(250,69)"/>
<path d="M0 0 C-0.33 1.32 -0.66 2.64 -1 4 C0.32 3.34 1.64 2.68 3 2 C5.97797365 5.2946293 6.37618617 7.47553306 6.38095093 11.86947632 C6.3894104 13.06952805 6.39786987 14.26957977 6.40658569 15.5059967 C6.400513 16.81934494 6.39444031 18.13269318 6.38818359 19.48583984 C6.39224957 20.88554799 6.3975916 22.28525293 6.40411377 23.68495178 C6.41779272 27.48466339 6.41248576 31.28413068 6.40297651 35.08384657 C6.39537988 39.06222154 6.40242582 43.04057562 6.40713501 47.01895142 C6.41259383 53.70212558 6.405399 60.38520031 6.39111328 67.06835938 C6.37479983 74.78916672 6.38006519 82.50973623 6.3965925 90.23053777 C6.41021975 96.86252511 6.41212058 103.49444096 6.40427649 110.12643778 C6.39960505 114.08595273 6.39896025 118.04535602 6.40888596 122.00486374 C6.41757094 125.72972896 6.41150601 129.45428869 6.39420319 133.17912102 C6.38836232 135.19372516 6.39724177 137.20835522 6.40658569 139.22294617 C6.39812622 140.42863754 6.38966675 141.63432892 6.38095093 142.8765564 C6.37981985 143.92036154 6.37868877 144.96416668 6.37752342 146.03960228 C5.92631662 149.57779754 4.8447241 151.95931508 3 155 C-0.6441774 157.4294516 -2.71241272 157.16179575 -7 157 C-7 158.65 -7 160.3 -7 162 C8.18 162 23.36 162 39 162 C34.48876938 167.63903828 34.48876938 167.63903828 31.890625 169.578125 C31.01772827 170.22962524 31.01772827 170.22962524 30.12719727 170.89428711 C29.19798462 171.56536499 29.19798462 171.56536499 28.25 172.25 C27.27341431 172.96071655 27.27341431 172.96071655 26.27709961 173.68579102 C19.19511022 178.7334931 11.69597318 182.96920291 4 187 C3.35377686 187.35046387 2.70755371 187.70092773 2.04174805 188.06201172 C-2.63256489 190.5253077 -7.16237964 192.0980929 -12.3125 193.25 C-13.42334961 193.50148804 -13.42334961 193.50148804 -14.55664062 193.75805664 C-26.06833652 196.22144935 -35.41046079 195.52826409 -45.625 189.4375 C-54.8252028 182.88657026 -58.40826841 173.67278288 -61 163 C-61 162.67 -61 162.34 -61 162 C-48.79 162 -36.58 162 -24 162 C-24 160.35 -24 158.7 -24 157 C-24.88751953 157.08701172 -24.88751953 157.08701172 -25.79296875 157.17578125 C-30.30215816 157.43323905 -32.30472016 157.53594488 -36 154.6875 C-38.77721187 150.95562156 -39.1362026 148.2438345 -39.24047852 143.71606445 C-39.26622452 142.63255203 -39.29197052 141.54903961 -39.3184967 140.43269348 C-39.40379792 135.39250961 -39.46881222 130.35246394 -39.51489258 125.31176758 C-39.54618626 122.68293759 -39.59356325 120.05424085 -39.65844727 117.42602539 C-40.08214234 99.9992147 -38.4711642 85.65048746 -31.96090698 69.427948 C-30.69987898 66.24167661 -29.64820873 63.02302991 -28.609375 59.7578125 C-28.29226562 58.79746094 -27.97515625 57.83710938 -27.6484375 56.84765625 C-27.0316704 54.97858378 -26.41720887 53.10874941 -25.8046875 51.23828125 C-24.01135936 45.82124459 -22.06439002 40.51309243 -19.87744141 35.24194336 C-18.99945522 32.99860803 -18.29316144 30.75101893 -17.625 28.4375 C-16.00291978 23.36283562 -13.12096901 19.27239447 -10 15 C-11.32 16.32 -12.64 17.64 -14 19 C-8.31292517 0 -8.31292517 0 0 0 Z " fill="#FEFEFE" transform="translate(150,134)"/>
<path d="M0 0 C0.33 0 0.66 0 1 0 C0.52966244 8.77963445 -2.21024618 16.73860901 -5 25 C-5.35868164 26.06976074 -5.35868164 26.06976074 -5.72460938 27.16113281 C-8.72165977 36.04381166 -12.02278594 44.65021657 -15.99609375 53.14453125 C-17.11920821 55.82109025 -17.11920821 55.82109025 -16.98046875 58.0703125 C-15.49181328 61.00017626 -13.2788241 62.83879896 -10.875 65.0625 C-5.56328265 70.19710278 -1.38837732 75.37286203 2 82 C2.50660156 82.98097656 3.01320313 83.96195312 3.53515625 84.97265625 C7.27872028 93.88838674 7.50076091 102.62494757 7.5625 112.1875 C7.57724365 113.45827393 7.5919873 114.72904785 7.60717773 116.03833008 C7.44296697 131.16047021 2.14913369 145.16697513 -8.203125 156.34375 C-14.4318518 162.08501122 -20.9567258 163.36881143 -29.1875 163.28125 C-35.00092044 162.69990796 -39.09725394 159.71995386 -43.625 156.25 C-46.07693494 154.44743596 -47.12989099 153.97502096 -50.25 153.375 C-53.1747057 153.74068808 -53.1747057 153.74068808 -54.8125 156.25 C-55.79588575 158.52731437 -56.54979768 160.56890748 -57 163 C-57.99 163 -58.98 163 -60 163 C-60.33 151.78 -60.66 140.56 -61 129 C-61.66 129.33 -62.32 129.66 -63 130 C-61.31980037 126.34443054 -59.11540406 123.09520231 -56.8515625 119.78515625 C-56.0080555 118.54045197 -55.16505831 117.29540209 -54.32250977 116.05004883 C-53.88206329 115.39984772 -53.44161682 114.74964661 -52.98782349 114.07974243 C-28.99854683 78.57097166 -11.34998513 41.38558331 0 0 Z " fill="#32478D" transform="translate(292,135)"/>
<path d="M0 0 C4.15958073 1.67397761 7.15668647 4.66552065 10.375 7.6875 C10.95499756 8.23059814 11.53499512 8.77369629 12.13256836 9.33325195 C20.55902856 17.29613203 26.97721189 24.0948733 27.47241211 36.19287109 C27.58479847 45.33694358 26.55863459 52.83379366 20.4375 60 C16.13481839 63.53040542 13.82916849 64.46300654 8.40234375 64.3046875 C1.55780111 63.43659917 -3.07481805 59.62659294 -7.3359375 54.40234375 C-11.56364585 48.29896198 -19.05542726 36.94331707 -17.66503906 29.11376953 C-16.95218602 26.84802739 -16.02047941 25.21704972 -14.70703125 23.2421875 C-14.24401611 22.53827881 -13.78100098 21.83437012 -13.30395508 21.10913086 C-12.56568481 20.00323608 -12.56568481 20.00323608 -11.8125 18.875 C-10.81123594 17.35369579 -9.81122979 15.8315629 -8.8125 14.30859375 C-8.32910156 13.57237793 -7.84570312 12.83616211 -7.34765625 12.07763672 C-4.78176593 8.12188915 -2.37231984 4.07398386 0 0 Z " fill="#FCFCFD" transform="translate(256,225)"/>
<path d="M0 0 C1.62305224 0.9259886 3.22835492 1.88392088 4.8125 2.875 C5.92818359 3.50921875 5.92818359 3.50921875 7.06640625 4.15625 C9.22617119 5.61018178 10.5224375 6.60448999 11.8125 8.875 C11.78577481 12.74480782 10.95906335 16.19289368 9.8125 19.875 C9.11125 19.153125 8.41 18.43125 7.6875 17.6875 C0.75067345 10.73808759 0.75067345 10.73808759 -8.5 8.5625 C-12.07372607 8.61381983 -13.90567055 8.73108709 -17.125 10.375 C-23.615955 18.24282425 -24.37559596 25.95980008 -23.48339844 35.8671875 C-21.91542898 46.50661065 -12.66341528 53.94344749 -5.1875 60.875 C-6.66989724 65.76310987 -8.69055113 70.1549368 -11 74.6875 C-11.35384766 75.38875 -11.70769531 76.09 -12.07226562 76.8125 C-14.65490083 81.90250236 -17.33164485 86.93217377 -20.1875 91.875 C-27.08060474 89.12380469 -31.24900148 80.67905623 -34.21240234 74.15698242 C-38.34034409 64.49652385 -39.77791771 56.19194777 -39.5625 45.6875 C-39.56121094 44.48158203 -39.55992187 43.27566406 -39.55859375 42.03320312 C-39.42015066 27.9504645 -36.16878112 14.71250849 -26.1875 4.1875 C-18.40025977 -2.77924557 -9.49718746 -4.47435884 0 0 Z " fill="#5B72B6" transform="translate(272.1875,127.125)"/>
<path d="M0 0 C4.47613227 4.22745826 6.75926169 9.63752964 7.37426758 15.67285156 C7.25208242 27.15119343 6.1397712 38.3692541 4.6875 49.75 C4.45588969 51.62800199 4.22501955 53.5060954 3.99487305 55.38427734 C2.77603434 65.25340227 1.45975567 75.10259891 -0.03955078 84.93334961 C-1.55853379 95.2290474 -2.24550093 105.62529913 -3 116 C-3.99 116 -4.98 116 -6 116 C-6.07156815 115.28089951 -6.14313629 114.56179901 -6.21687317 113.82090759 C-7.62213407 99.78096732 -9.10762488 85.75953763 -10.82421875 71.75390625 C-10.97698273 70.50233734 -11.1297467 69.25076843 -11.28713989 67.96127319 C-11.91080516 62.86372786 -12.53696679 57.76653906 -13.17407227 52.6706543 C-13.64837324 48.86596158 -14.11205314 45.06008959 -14.57421875 41.25390625 C-14.71792404 40.12658585 -14.86162933 38.99926544 -15.00968933 37.83778381 C-18.06746679 12.37086078 -18.06746679 12.37086078 -10.9375 2 C-7.33987438 -1.71367806 -4.9180342 -1.1871117 0 0 Z " fill="#5C73B7" transform="translate(329,126)"/>
<path d="M0 0 C6.04172432 3.36596848 8.86590104 7.54582311 11.625 13.8125 C12.08600145 16.49394628 12.4450914 19.05288531 12.6875 21.75 C13.06268977 25.65420248 13.42253888 29.20887986 14.67578125 32.9453125 C16.12609251 38.85398798 15.83258818 44.69247443 15.75 50.75 C15.74097656 52.00619141 15.73195313 53.26238281 15.72265625 54.55664062 C15.69919249 57.64212522 15.66636201 60.72721205 15.625 63.8125 C16.615 64.1425 17.605 64.4725 18.625 64.8125 C18.625 66.4625 18.625 68.1125 18.625 69.8125 C16.645 70.3075 16.645 70.3075 14.625 70.8125 C11.99398013 83.29515891 12.17907469 95.92655288 12 108.625 C11.96174581 110.87826908 11.92268998 113.13152469 11.8828125 115.38476562 C11.78762876 120.86055612 11.70235501 126.33643013 11.625 131.8125 C10.635 131.8125 9.645 131.8125 8.625 131.8125 C8.50382812 130.8946875 8.38265625 129.976875 8.2578125 129.03125 C8.09023438 127.8040625 7.92265625 126.576875 7.75 125.3125 C7.50636719 123.50265625 7.50636719 123.50265625 7.2578125 121.65625 C6.79679944 118.85602254 6.23713743 116.51255095 5.4140625 113.83984375 C4.28030323 109.45646953 5.35727567 106.0337725 6.875 101.875 C10.20291543 91.80701691 11.85168712 81.44618687 11.625 70.8125 C9.975 70.8125 8.325 70.8125 6.625 70.8125 C7.12 69.3275 7.12 69.3275 7.625 67.8125 C7.295 66.8225 6.965 65.8325 6.625 64.8125 C6.625 63.4925 6.625 62.1725 6.625 60.8125 C8.275 60.8125 9.925 60.8125 11.625 60.8125 C11.295 61.8025 10.965 62.7925 10.625 63.8125 C10.625 64.4725 10.625 65.1325 10.625 65.8125 C10.955 66.1425 11.285 66.4725 11.625 66.8125 C13.46226396 61.32266744 13.97491207 56.46123492 13.9375 50.6875 C13.93621094 49.86016357 13.93492187 49.03282715 13.93359375 48.18041992 C13.82345503 41.07440709 12.68219636 34.63308555 10.625 27.8125 C10.026875 28.740625 9.42875 29.66875 8.8125 30.625 C6.625 33.8125 6.625 33.8125 4.96875 35.03125 C2.78488836 37.92613636 3.57639573 41.07749844 3.9375 44.5 C3.99873047 45.20189453 4.05996094 45.90378906 4.12304688 46.62695312 C4.27602624 48.3567967 4.44862602 50.08488497 4.625 51.8125 C2.61506295 48.79759443 1.89876659 46.5975073 1 43.125 C0.60941406 41.63419922 0.60941406 41.63419922 0.2109375 40.11328125 C0.01757812 39.35402344 -0.17578125 38.59476563 -0.375 37.8125 C-3.345 37.8125 -6.315 37.8125 -9.375 37.8125 C-9.375 37.4825 -9.375 37.1525 -9.375 36.8125 C-6.405 36.3175 -6.405 36.3175 -3.375 35.8125 C-3.375 34.8225 -3.375 33.8325 -3.375 32.8125 C-4.07625 33.1425 -4.7775 33.4725 -5.5 33.8125 C-8.63503116 34.90294562 -11.08063182 34.96572643 -14.375 34.8125 C-14.375 34.1525 -14.375 33.4925 -14.375 32.8125 C-15.695 32.4825 -17.015 32.1525 -18.375 31.8125 C-18.375 31.1525 -18.375 30.4925 -18.375 29.8125 C-17.715 29.8125 -17.055 29.8125 -16.375 29.8125 C-16.045 28.8225 -15.715 27.8325 -15.375 26.8125 C-18.015 26.8125 -20.655 26.8125 -23.375 26.8125 C-23.705 25.8225 -24.035 24.8325 -24.375 23.8125 C-25.035 23.8125 -25.695 23.8125 -26.375 23.8125 C-26.375 22.4925 -26.375 21.1725 -26.375 19.8125 C-27.365 19.8125 -28.355 19.8125 -29.375 19.8125 C-29.67657239 13.20709178 -27.96787765 8.33612965 -24.375 2.8125 C-17.23280554 -3.73919806 -8.48706846 -3.92573651 0 0 Z " fill="#727276" transform="translate(282.375,48.1875)"/>
<path d="M0 0 C3.3125 1.5625 3.3125 1.5625 6 4 C6.56976563 4.49757812 7.13953125 4.99515625 7.7265625 5.5078125 C10.06537336 7.80390535 11.80700124 9.68503512 12.29296875 12.99609375 C12.10060381 15.43420753 11.62070236 17.63334539 11 20 C10.76925781 20.92296875 10.53851563 21.8459375 10.30078125 22.796875 C7.47287985 32.88007096 3.17964799 42.41935856 -1 52 C-8.10395167 50.53725646 -12.66381175 43.95702568 -16.984375 38.48828125 C-22.15368616 30.45123319 -22.06726193 22.20973438 -21 13 C-19.77649796 8.31670609 -17.55066435 5.64468022 -14.4375 2 C-9.58257127 -0.8246858 -5.48944629 -0.86977774 0 0 Z " fill="#FDFDFD" transform="translate(269,135)"/>
<path d="M0 0 C4.09678808 0.80329178 5.33268448 2.4493002 7.890625 5.60546875 C12.13263249 12.21124547 11.85470109 19.001007 11.1875 26.625 C10.06913552 31.42704956 8.97556458 36.01181599 5.23046875 39.390625 C2.27334371 41.17733917 0.57936257 41.24799517 -2.8125 40.625 C-8.9213423 34.942356 -10.95649473 28.43812132 -11.3125 20.25 C-11.15458531 13.10228225 -8.99697992 7.32633268 -4.3203125 1.890625 C-2.8125 0.625 -2.8125 0.625 0 0 Z " fill="#2B3D85" transform="translate(323.8125,258.375)"/>
<path d="M0 0 C-0.99 3.3 -1.98 6.6 -3 10 C-3.75023437 10.10957031 -4.50046875 10.21914062 -5.2734375 10.33203125 C-23.36620737 13.1348155 -39.22826901 20.16606469 -54 31 C-55.56814453 32.14082031 -55.56814453 32.14082031 -57.16796875 33.3046875 C-63.78181197 38.21479995 -69.88823438 43.46995499 -75.68725586 49.32910156 C-77.22265625 50.82421875 -77.22265625 50.82421875 -80 53 C-82.37109375 52.83203125 -82.37109375 52.83203125 -84 52 C-77.85794157 45.75632663 -71.69974152 39.65097904 -65 34 C-64.16597656 33.26523438 -63.33195312 32.53046875 -62.47265625 31.7734375 C-47.07877491 18.47008325 -21.67224823 -1.97020438 0 0 Z " fill="#E2BD74" transform="translate(254,56)"/>
<path d="M0 0 C7.83398272 -0.75006218 13.42810484 0.61069754 20 5 C22.4375 7.4375 22.4375 7.4375 24 10 C24.5775 10.86625 25.155 11.7325 25.75 12.625 C27.52744348 17.42409739 27.24319253 21.93799251 27 27 C26.67 27 26.34 27 26 27 C25.67 24.69 25.34 22.38 25 20 C24.01 20.33 23.02 20.66 22 21 C21.34 20.67 20.68 20.34 20 20 C20 20.99 20 21.98 20 23 C20.66 23.33 21.32 23.66 22 24 C21.67 26.31 21.34 28.62 21 31 C19.35 31.33 17.7 31.66 16 32 C16 32.66 16 33.32 16 34 C10.62694301 33.8238342 10.62694301 33.8238342 8 33 C6 29.9375 6 29.9375 5 27 C7.97 27.33 10.94 27.66 14 28 C13.34 26.35 12.68 24.7 12 23 C13.65 22.67 15.3 22.34 17 22 C17 21.34 17 20.68 17 20 C16.34 19.67 15.68 19.34 15 19 C14.27840576 17.35636866 13.60648579 15.68949614 13 14 C12.34 14 11.68 14 11 14 C11.99 15.485 11.99 15.485 13 17 C13 17.99 13 18.98 13 20 C11.68 19.67 10.36 19.34 9 19 C7.875 15.25 7.875 15.25 9 13 C8.01 13 7.02 13 6 13 C6 12.34 6 11.68 6 11 C7.32 10.34 8.64 9.68 10 9 C10 8.34 10 7.68 10 7 C9.34 7 8.68 7 8 7 C8 7.66 8 8.32 8 9 C7.34 9 6.68 9 6 9 C6 8.34 6 7.68 6 7 C5.5875 7.515625 5.175 8.03125 4.75 8.5625 C4.1725 9.036875 3.595 9.51125 3 10 C0.8125 9.6875 0.8125 9.6875 -1 9 C-0.34 9 0.32 9 1 9 C1 8.34 1 7.68 1 7 C1.66 7 2.32 7 3 7 C2.34 5.68 1.68 4.36 1 3 C1.33 2.67 1.66 2.34 2 2 C1.34 1.34 0.68 0.68 0 0 Z " fill="#B8BCC3" transform="translate(267,46)"/>
<path d="M0 0 C-0.33 0.99 -0.66 1.98 -1 3 C-0.67 3.99 -0.34 4.98 0 6 C-0.66 6 -1.32 6 -2 6 C-2 6.66 -2 7.32 -2 8 C-1.34 8.33 -0.68 8.66 0 9 C0.33 8.01 0.66 7.02 1 6 C1.66 6 2.32 6 3 6 C3 6.66 3 7.32 3 8 C3.66 8 4.32 8 5 8 C5 7.34 5 6.68 5 6 C5.66 6 6.32 6 7 6 C7.33 6.99 7.66 7.98 8 9 C6.35 9.33 4.7 9.66 3 10 C3 10.66 3 11.32 3 12 C3.99 12 4.98 12 6 12 C6.33 13.98 6.66 15.96 7 18 C7.99 18.33 8.98 18.66 10 19 C9.34 17.02 8.68 15.04 8 13 C8.99 12.67 9.98 12.34 11 12 C11.33 13.98 11.66 15.96 12 18 C12.99 18.33 13.98 18.66 15 19 C14.67 19.99 14.34 20.98 14 22 C11.9375 22.6875 11.9375 22.6875 10 23 C10.33 24.32 10.66 25.64 11 27 C8.98177083 26.90234375 6.96354167 26.8046875 4.9453125 26.70703125 C4.30335938 26.80371094 3.66140625 26.90039062 3 27 C2.34 27.99 1.68 28.98 1 30 C0.34 30 -0.32 30 -1 30 C-1 29.34 -1 28.68 -1 28 C-0.34 28 0.32 28 1 28 C1 27.01 1 26.02 1 25 C-0.32 25.33 -1.64 25.66 -3 26 C-3 25.34 -3 24.68 -3 24 C-3.66 24 -4.32 24 -5 24 C-5.33 23.34 -5.66 22.68 -6 22 C-6.66 21.7525 -7.32 21.505 -8 21.25 C-10 20 -10 20 -10.75 16.875 C-10.8325 15.92625 -10.915 14.9775 -11 14 C-8.525 14.99 -8.525 14.99 -6 16 C-6.33 14.68 -6.66 13.36 -7 12 C-6.34 12 -5.68 12 -5 12 C-5 10.68 -5 9.36 -5 8 C-5.66 8 -6.32 8 -7 8 C-7.66 9.32 -8.32 10.64 -9 12 C-9.33 11.01 -9.66 10.02 -10 9 C-10.99 9.495 -10.99 9.495 -12 10 C-12.33 8.35 -12.66 6.7 -13 5 C-4.738041 -0.74031891 -4.738041 -0.74031891 0 0 Z " fill="#838885" transform="translate(270,47)"/>
<path d="M0 0 C0 0.99 0 1.98 0 3 C-0.33 3.33 -0.66 3.66 -1 4 C-1.22881538 5.99616505 -1.39531688 7.99954193 -1.53515625 10.00390625 C-1.62216797 11.21884766 -1.70917969 12.43378906 -1.79882812 13.68554688 C-1.88583984 14.96494141 -1.97285156 16.24433594 -2.0625 17.5625 C-2.15337891 18.84576172 -2.24425781 20.12902344 -2.33789062 21.45117188 C-2.56268946 24.63385015 -2.78319818 27.81676858 -3 31 C-3.61931396 30.98316162 -4.23862793 30.96632324 -4.87670898 30.94897461 C-17.24285683 30.12482278 -17.24285683 30.12482278 -28.46484375 34.0703125 C-30.60008424 36.2782273 -32.38685071 38.39049379 -34 41 C-34.66 40.67 -35.32 40.34 -36 40 C-35.53215088 39.54262451 -35.06430176 39.08524902 -34.58227539 38.61401367 C-25.87781328 30.07873658 -17.51275434 21.61065555 -10 12 C-8.16031017 9.75867825 -6.29974425 7.53509424 -4.4375 5.3125 C-3.58193239 4.28784296 -2.72645424 3.2631112 -1.87109375 2.23828125 C-1.25363281 1.49964844 -0.63617188 0.76101563 0 0 Z " fill="#2D3C7D" transform="translate(228,265)"/>
<path d="M0 0 C0.33 0.99 0.66 1.98 1 3 C0 5 -1 7 -2 9 C-2.25284367 11.75146274 -2.25284367 11.75146274 -2 14 C-1.01 14.33 -0.02 14.66 1 15 C0.67 16.32 0.34 17.64 0 19 C0.66 19 1.32 19 2 19 C2.66 19.66 3.32 20.32 4 21 C6.32275177 21.40047444 8.65739357 21.7397104 11 22 C10.67 23.32 10.34 24.64 10 26 C9.34 25.67 8.68 25.34 8 25 C8.33 25.66 8.66 26.32 9 27 C9.99 27.33 10.98 27.66 12 28 C12 28.66 12 29.32 12 30 C13.0725 29.67 14.145 29.34 15.25 29 C19 28 19 28 23 28 C24 31 24 31 24 32 C24.99 32.33 25.98 32.66 27 33 C21.4216462 36.82748363 16.58466873 36.86287644 10 36 C3.42358508 33.93112783 -0.39520926 30.03947475 -3.9140625 24.2265625 C-5.24225477 21.50329057 -5.84491225 19.02421114 -6 16 C-8.31 16 -10.62 16 -13 16 C-13.33 15.01 -13.66 14.02 -14 13 C-11.03 13 -8.06 13 -5 13 C-4.9175 11.96875 -4.835 10.9375 -4.75 9.875 C-3.89746699 5.47024613 -2.65758511 3.51487063 0 0 Z " fill="#808893" transform="translate(256,53)"/>
<path d="M0 0 C0.66 0.66 1.32 1.32 2 2 C2.66 2 3.32 2 4 2 C4 2.99 4 3.98 4 5 C4.66 4.01 5.32 3.02 6 2 C6.66 2 7.32 2 8 2 C7.67 4.64 7.34 7.28 7 10 C5.68 9.67 4.36 9.34 3 9 C3.66 10.98 4.32 12.96 5 15 C5.99 15 6.98 15 8 15 C8 15.99 8 16.98 8 18 C8.66 18 9.32 18 10 18 C10 18.66 10 19.32 10 20 C11.32 19.67 12.64 19.34 14 19 C14 19.99 14 20.98 14 22 C13.34 22 12.68 22 12 22 C12 22.66 12 23.32 12 24 C13.65 23.34 15.3 22.68 17 22 C17 22.66 17 23.32 17 24 C18.11375 24.309375 19.2275 24.61875 20.375 24.9375 C24 26 24 26 26 27 C26 26.34 26 25.68 26 25 C27.65 24.67 29.3 24.34 31 24 C30.67 25.32 30.34 26.64 30 28 C28.68 28.33 27.36 28.66 26 29 C26 29.66 26 30.32 26 31 C26.66 31 27.32 31 28 31 C28.33895656 32.72807318 28.67091525 34.45751974 29 36.1875 C29.185625 37.15042969 29.37125 38.11335938 29.5625 39.10546875 C29.96877612 41.7934206 30.07933572 44.28771019 30 47 C27.99006295 43.98509443 27.27376659 41.7850073 26.375 38.3125 C25.98441406 36.82169922 25.98441406 36.82169922 25.5859375 35.30078125 C25.39257812 34.54152344 25.19921875 33.78226563 25 33 C22.03 33 19.06 33 16 33 C16 32.67 16 32.34 16 32 C17.98 31.67 19.96 31.34 22 31 C22 30.01 22 29.02 22 28 C21.29875 28.33 20.5975 28.66 19.875 29 C16.73996884 30.09044562 14.29436818 30.15322643 11 30 C11 29.34 11 28.68 11 28 C9.68 27.67 8.36 27.34 7 27 C7 26.34 7 25.68 7 25 C7.66 25 8.32 25 9 25 C9.33 24.01 9.66 23.02 10 22 C7.36 22 4.72 22 2 22 C1.67 21.01 1.34 20.02 1 19 C0.34 19 -0.32 19 -1 19 C-1 17.68 -1 16.36 -1 15 C-1.99 15 -2.98 15 -4 15 C-4.59720137 9.17728663 -2.528243 5.0790596 0 0 Z " fill="#30415F" transform="translate(257,53)"/>
<path d="M0 0 C0 0.33 0 0.66 0 1 C-1.19882813 1.14695312 -1.19882813 1.14695312 -2.421875 1.296875 C-27.41601103 4.69983249 -47.47330881 17.85352248 -66.375 33.875 C-66.99963135 34.39795654 -67.6242627 34.92091309 -68.26782227 35.4597168 C-73.66354903 40.16962875 -76.14212713 44.7938679 -77 52 C-77.66 52 -78.32 52 -79 52 C-79 50.35 -79 48.7 -79 47 C-80.21418059 48.01387161 -81.42097015 49.03659442 -82.625 50.0625 C-83.29789063 50.63097656 -83.97078125 51.19945312 -84.6640625 51.78515625 C-87.66972794 54.6350096 -90.30445946 57.85520271 -93 61 C-61.32 61.495 -61.32 61.495 -29 62 C-29 62.33 -29 62.66 -29 63 C-52.76 63 -76.52 63 -101 63 C-101 62.67 -101 62.34 -101 62 C-99.02 62 -97.04 62 -95 62 C-94.78472656 61.46375 -94.56945312 60.9275 -94.34765625 60.375 C-92.16979919 56.53692147 -88.96164583 53.56481555 -85.90039062 50.421875 C-83.01054794 47.48131281 -83.01054794 47.48131281 -81.47265625 43.75 C-81.31667969 43.1725 -81.16070312 42.595 -81 42 C-79.33769059 41.32254177 -77.66999092 40.65829518 -76 40 C-73.85997519 38.1063502 -71.83590918 36.19714051 -69.8125 34.1875 C-51.11440168 16.30911989 -26.69758186 -0.80092746 0 0 Z " fill="#2E4695" transform="translate(251,67)"/>
<path d="M0 0 C0.66 0 1.32 0 2 0 C2 0.66 2 1.32 2 2 C6.58205936 2.9297165 6.58205936 2.9297165 11.125 2.375 C13 2 13 2 15.75 3.4375 C16.4925 3.953125 17.235 4.46875 18 5 C18.33 4.34 18.66 3.68 19 3 C21.875 2.1875 21.875 2.1875 25 2 C27.57393029 3.59761191 27.93618619 4.750546 28.6875 7.6875 C28.8421875 8.8321875 28.8421875 8.8321875 29 10 C23.375 10.25 23.375 10.25 20 8 C18.68 8 17.36 8 16 8 C16 7.34 16 6.68 16 6 C15.01 6 14.02 6 13 6 C12.67 6.33 12.34 6.66 12 7 C12.66 7.66 13.32 8.32 14 9 C10.47652211 9.9395941 7.68770169 10 4 10 C4 8.02 4 6.04 4 4 C3.01 4.495 3.01 4.495 2 5 C1.34786708 7.02463255 1.34786708 7.02463255 1 9 C-2.37817425 9.84454356 -4.67465243 10.10844919 -8 9 C-8 8.34 -8 7.68 -8 7 C-9.65 7 -11.3 7 -13 7 C-13 7.99 -13 8.98 -13 10 C-14.98 10 -16.96 10 -19 10 C-19 9.34 -19 8.68 -19 8 C-17.35 8 -15.7 8 -14 8 C-13.34 5.69 -12.68 3.38 -12 1 C-9 2 -9 2 -7 5 C-6.01 4.01 -5.02 3.02 -4 2 C-3.01 2.33 -2.02 2.66 -1 3 C-1.99 3.66 -2.98 4.32 -4 5 C-4.33 5.99 -4.66 6.98 -5 8 C-3.35 8 -1.7 8 0 8 C0 5.36 0 2.72 0 0 Z " fill="#5C74AB" transform="translate(303,301)"/>
<path d="M0 0 C0.66 0 1.32 0 2 0 C2.33 0.99 2.66 1.98 3 3 C4.32 2.67 5.64 2.34 7 2 C7 2.99 7 3.98 7 5 C7.3062434 6.33981486 7.63451555 7.67511887 8 9 C5.10765685 9.82638376 3.11257569 10 0 10 C0 8.02 0 6.04 0 4 C-0.99 4.495 -0.99 4.495 -2 5 C-2.65555119 7.52733235 -2.65555119 7.52733235 -3 10 C-3.33 9.01 -3.66 8.02 -4 7 C-4.99 7.495 -4.99 7.495 -6 8 C-6 8.66 -6 9.32 -6 10 C-6.78375 9.835 -7.5675 9.67 -8.375 9.5 C-11.63501819 8.87904415 -13.84514201 9.01410688 -17 10 C-17.66 10.66 -18.32 11.32 -19 12 C-19 11.34 -19 10.68 -19 10 C-22.28696233 9.20046862 -23.71023192 8.90341064 -27 10 C-27 9.34 -27 8.68 -27 8 C-26.34 8 -25.68 8 -25 8 C-25.33 6.35 -25.66 4.7 -26 3 C-25.443125 3.20625 -24.88625 3.4125 -24.3125 3.625 C-21.91954784 4.21684412 -21.91954784 4.21684412 -19.5 3 C-16.67715372 1.87086149 -15.79937571 2.06687476 -13 3 C-10.08476473 3.10300524 -10.08476473 3.10300524 -7.625 2.5 C-5.01525755 2.0029062 -2.64901912 1.92431374 0 2 C0 1.34 0 0.68 0 0 Z " fill="#657CB0" transform="translate(254,301)"/>
<path d="M0 0 C23.76 0 47.52 0 72 0 C72 15.84 72 31.68 72 48 C71.01 48 70.02 48 69 48 C67.76384378 42.90085558 67.32520205 38.02439385 69 33 C69.33 22.44 69.66 11.88 70 1 C46.9 1 23.8 1 0 1 C0 0.67 0 0.34 0 0 Z " fill="#677DBD" transform="translate(150,130)"/>
<path d="M0 0 C3.38537037 0.43682198 6.73101228 1.04017605 10.09375 1.625 C11.0528125 1.74875 12.011875 1.8725 13 2 C13.33 1.67 13.66 1.34 14 1 C15.66605828 0.9549714 17.33378384 0.96125079 19 1 C20.32 1 21.64 1 23 1 C23.99 1.66 24.98 2.32 26 3 C25.34 3 24.68 3 24 3 C24 5.31 24 7.62 24 10 C22.68 9.67 21.36 9.34 20 9 C19.01 10.485 19.01 10.485 18 12 C16.68 12 15.36 12 14 12 C14 9.69 14 7.38 14 5 C13.34 5 12.68 5 12 5 C12 4.34 12 3.68 12 3 C11.34 3 10.68 3 10 3 C10.33 4.98 10.66 6.96 11 9 C9.68 8.34 8.36 7.68 7 7 C6.67 7.99 6.34 8.98 6 10 C4.00045254 10.04254356 1.99958364 10.04080783 0 10 C-1 9 -1 9 -1.1328125 7.1875 C-1.13023437 6.465625 -1.12765625 5.74375 -1.125 5 C-1.12757813 4.278125 -1.13015625 3.55625 -1.1328125 2.8125 C-1 1 -1 1 0 0 Z " fill="#8395BF" transform="translate(222,110)"/>
<path d="M0 0 C0.33 0 0.66 0 1 0 C1 14.85 1 29.7 1 45 C0.01 45 -0.98 45 -2 45 C-2.12117188 44.0821875 -2.24234375 43.164375 -2.3671875 42.21875 C-2.53476562 40.9915625 -2.70234375 39.764375 -2.875 38.5 C-3.03742188 37.2934375 -3.19984375 36.086875 -3.3671875 34.84375 C-3.82776157 32.04618898 -4.38442452 29.73409497 -5.21484375 27.0703125 C-6.43199185 22.38144852 -5.25173245 18.84653339 -3.6875 14.375 C-3.20906904 12.92552183 -2.73374417 11.47501428 -2.26171875 10.0234375 C-2.03790527 9.34249023 -1.8140918 8.66154297 -1.58349609 7.95996094 C-0.80331373 5.33933165 -0.36290107 2.70681504 0 0 Z " fill="#5B73B7" transform="translate(293,135)"/>
<path d="M0 0 C0.639375 0.474375 1.27875 0.94875 1.9375 1.4375 C5.92181519 3.47031387 9.58494074 3.7210529 14 4 C14 5.65 14 7.3 14 9 C-3.49 9 -20.98 9 -39 9 C-39 7.35 -39 5.7 -39 4 C-33.555 3.505 -33.555 3.505 -28 3 C-28.99 4.485 -28.99 4.485 -30 6 C-25.51728086 6.89114296 -21.41416599 7.054391 -16.8515625 6.87890625 C-15.86547501 6.84348976 -15.86547501 6.84348976 -14.85946655 6.80735779 C-12.7810523 6.73141555 -10.70307808 6.64709817 -8.625 6.5625 C-7.20705204 6.50920952 -5.78908327 6.45646973 -4.37109375 6.40429688 C-0.91379897 6.27589634 2.54315278 6.13998803 6 6 C5.01 5.38125 4.02 4.7625 3 4.125 C2.01 3.42375 1.02 2.7225 0 2 C0 1.34 0 0.68 0 0 Z " fill="#314286" transform="translate(112,287)"/>
<path d="M0 0 C0.66 0 1.32 0 2 0 C2.33 0.99 2.66 1.98 3 3 C3.61875 2.835 4.2375 2.67 4.875 2.5 C7 2 7 2 9 2 C9 1.34 9 0.68 9 0 C9.66 0 10.32 0 11 0 C11 0.66 11 1.32 11 2 C13.97 2.495 13.97 2.495 17 3 C17 4.65 17 6.3 17 8 C17.66 8 18.32 8 19 8 C18.9690625 6.2984375 18.9690625 6.2984375 18.9375 4.5625 C19 1 19 1 20 0 C21.66617115 -0.04063832 23.33388095 -0.042721 25 0 C25 0.66 25 1.32 25 2 C23.68 2 22.36 2 21 2 C21 2.66 21 3.32 21 4 C21.99 4 22.98 4 24 4 C24 4.66 24 5.32 24 6 C23.01 6 22.02 6 21 6 C21 6.66 21 7.32 21 8 C22.32 8 23.64 8 25 8 C25 8.66 25 9.32 25 10 C22.03 10 19.06 10 16 10 C15.87625 9.195625 15.7525 8.39125 15.625 7.5625 C15.41875 6.716875 15.2125 5.87125 15 5 C14.34 4.67 13.68 4.34 13 4 C13 5.98 13 7.96 13 10 C9.33333333 10 5.66666667 10 2 10 C1.67 10.66 1.34 11.32 1 12 C0.01 11.67 -0.98 11.34 -2 11 C-1.34 11 -0.68 11 0 11 C0 7.37 0 3.74 0 0 Z " fill="#6C82B3" transform="translate(201,301)"/>
<path d="M0 0 C0.33 0 0.66 0 1 0 C1.0696572 8.74516358 1.12289077 17.49023095 1.15543652 26.23561192 C1.17106063 30.29690446 1.19223893 34.35800652 1.22631836 38.41918945 C1.25902862 42.34197284 1.27687748 46.26457354 1.28463173 50.18748283 C1.29015439 51.68054007 1.30093873 53.17358785 1.31719017 54.66656685 C1.33912048 56.76563882 1.34196056 58.8639658 1.34057617 60.96313477 C1.34723801 62.15560318 1.35389984 63.34807159 1.36076355 64.57667542 C0.68324276 71.00574393 -1.44999009 74.44999009 -6 79 C13.305 79.495 13.305 79.495 33 80 C33 80.33 33 80.66 33 81 C17.49 81 1.98 81 -14 81 C-14 79.68 -14 78.36 -14 77 C-13.07767578 76.88785156 -13.07767578 76.88785156 -12.13671875 76.7734375 C-9.63281327 76.36610359 -7.377504 75.89103614 -5 75 C-1.22881565 69.69677201 -0.88233943 63.90658433 -0.79467773 57.55737305 C-0.77473251 56.27642258 -0.75478729 54.99547211 -0.73423767 53.67570496 C-0.71725722 52.28771076 -0.70037827 50.89971533 -0.68359375 49.51171875 C-0.66300576 48.08396325 -0.64200882 46.65621359 -0.62062073 45.22846985 C-0.56559047 41.48193105 -0.51609773 37.73533899 -0.46777344 33.9887085 C-0.41741879 30.16104426 -0.36180582 26.33345677 -0.30664062 22.50585938 C-0.19929224 15.00397137 -0.09779613 7.50201926 0 0 Z " fill="#1B3080" transform="translate(157,214)"/>
<path d="M0 0 C0.33 0.66 0.66 1.32 1 2 C0.28082397 3.0669812 0.28082397 3.0669812 -0.45288086 4.15551758 C-2.23171255 6.79818672 -4.00740717 9.44292786 -5.78100586 12.08911133 C-6.54896132 13.23350601 -7.31815804 14.37706876 -8.08862305 15.51977539 C-9.19646719 17.16332753 -10.2994703 18.81013951 -11.40234375 20.45703125 C-12.06741943 21.44678955 -12.73249512 22.43654785 -13.41772461 23.45629883 C-16.02343462 27.64529629 -16.11882265 30.78961368 -16.09765625 35.63671875 C-16.09443359 36.93544922 -16.09121094 38.23417969 -16.08789062 39.57226562 C-16.07953531 40.94401108 -16.07107037 42.31575587 -16.0625 43.6875 C-16.05748335 45.07096195 -16.05292073 46.45442563 -16.04882812 47.83789062 C-16.03702529 51.22530395 -16.02056019 54.61263033 -16 58 C-15.34 58 -14.68 58 -14 58 C-13.34 56.68 -12.68 55.36 -12 54 C-11.34 54.33 -10.68 54.66 -10 55 C-10.639375 55.9075 -11.27875 56.815 -11.9375 57.75 C-13.61428953 60.39221381 -14.53689998 61.9898499 -15 65 C-15.99 65 -16.98 65 -18 65 C-18.33 53.78 -18.66 42.56 -19 31 C-19.66 31.33 -20.32 31.66 -21 32 C-19.2780234 28.23267091 -16.98099055 24.89055279 -14.6484375 21.484375 C-14.22954254 20.86854553 -13.81064758 20.25271606 -13.37905884 19.6182251 C-12.04666926 17.660574 -10.71088894 15.70526437 -9.375 13.75 C-8.46852495 12.41942412 -7.56227244 11.08869661 -6.65625 9.7578125 C-4.44007402 6.50344614 -2.2208551 3.25117481 0 0 Z " fill="#373F65" transform="translate(250,233)"/>
<path d="M0 0 C0 0.33 0 0.66 0 1 C-1.19882813 1.14695312 -1.19882813 1.14695312 -2.421875 1.296875 C-28.20594363 4.807382 -49.40349469 18.67509218 -68.26782227 35.98706055 C-72.69578722 40 -72.69578722 40 -76 40 C-55.70451681 20.06344015 -29.77709535 -0.89331286 0 0 Z " fill="#342F2D" transform="translate(251,67)"/>
<path d="M0 0 C-0.33 0.99 -0.66 1.98 -1 3 C-0.67 3.99 -0.34 4.98 0 6 C-0.66 6 -1.32 6 -2 6 C-2 6.66 -2 7.32 -2 8 C-1.34 8.33 -0.68 8.66 0 9 C0.33 8.01 0.66 7.02 1 6 C1.66 6 2.32 6 3 6 C3 6.66 3 7.32 3 8 C3.66 8 4.32 8 5 8 C5 7.34 5 6.68 5 6 C5.66 6 6.32 6 7 6 C7.33 6.99 7.66 7.98 8 9 C7.195625 9.12375 6.39125 9.2475 5.5625 9.375 C4.716875 9.58125 3.87125 9.7875 3 10 C2.67 10.66 2.34 11.32 2 12 C-0.31 11.34 -2.62 10.68 -5 10 C-5 9.34 -5 8.68 -5 8 C-5.66 8 -6.32 8 -7 8 C-7.66 9.32 -8.32 10.64 -9 12 C-9.33 11.01 -9.66 10.02 -10 9 C-10.99 9.495 -10.99 9.495 -12 10 C-12.33 8.35 -12.66 6.7 -13 5 C-4.738041 -0.74031891 -4.738041 -0.74031891 0 0 Z " fill="#8D96A8" transform="translate(270,47)"/>
<path d="M0 0 C0.66 0.66 1.32 1.32 2 2 C2.66 2 3.32 2 4 2 C4 2.99 4 3.98 4 5 C4.66 4.01 5.32 3.02 6 2 C6.66 2 7.32 2 8 2 C7.67 4.64 7.34 7.28 7 10 C5.68 9.67 4.36 9.34 3 9 C3.66 11.64 4.32 14.28 5 17 C1.97580475 16.41196203 -1.01758453 15.77321882 -4 15 C-4.59720137 9.17728663 -2.528243 5.0790596 0 0 Z " fill="#424F6A" transform="translate(257,53)"/>
<path d="M0 0 C1 1 1 1 1.09765625 2.84765625 C1.04882812 5.92382812 1.04882812 5.92382812 1 9 C-0.97909398 9.02686553 -2.95828971 9.04633375 -4.9375 9.0625 C-6.03964844 9.07410156 -7.14179688 9.08570312 -8.27734375 9.09765625 C-11 9 -11 9 -12 8 C-12.04092937 5.66702567 -12.04241723 3.33294775 -12 1 C-7.94241601 0.22712686 -4.13300269 -0.19223268 0 0 Z " fill="#7D90BC" transform="translate(195,111)"/>
<path d="M0 0 C0.78375 0.165 1.5675 0.33 2.375 0.5 C4.90397702 0.98170991 6.40983024 1.1573786 8.875 0.5 C12.36087002 -0.32020471 15.66228544 -0.26602966 19 1 C19.33 1.99 19.66 2.98 20 4 C19.34 4 18.68 4 18 4 C17.67 4.33 17.34 4.66 17 5 C17.66 5.66 18.32 6.32 19 7 C15.98968256 7.93423645 15.13349732 8.04449911 12 7 C10.65938457 7.30271961 9.32594105 7.63837971 8 8 C6.68 8 5.36 8 4 8 C4 6.02 4 4.04 4 2 C3.01 2 2.02 2 1 2 C1 3.65 1 5.3 1 7 C0.67 6.01 0.34 5.02 0 4 C-0.66 4 -1.32 4 -2 4 C-1.34 2.68 -0.68 1.36 0 0 Z " fill="#8598C0" transform="translate(264,303)"/>
<path d="M0 0 C-0.33 1.32 -0.66 2.64 -1 4 C-2.32 4.33 -3.64 4.66 -5 5 C-5 5.66 -5 6.32 -5 7 C-4.34 7 -3.68 7 -3 7 C-2.66104344 8.72807318 -2.32908475 10.45751974 -2 12.1875 C-1.814375 13.15042969 -1.62875 14.11335938 -1.4375 15.10546875 C-1.03122388 17.7934206 -0.92066428 20.28771019 -1 23 C-3.00993705 19.98509443 -3.72623341 17.7850073 -4.625 14.3125 C-4.88539063 13.31863281 -5.14578125 12.32476562 -5.4140625 11.30078125 C-5.60742188 10.54152344 -5.80078125 9.78226563 -6 9 C-8.97 9 -11.94 9 -15 9 C-15 8.67 -15 8.34 -15 8 C-13.02 7.67 -11.04 7.34 -9 7 C-9 6.01 -9 5.02 -9 4 C-11.64 4.33 -14.28 4.66 -17 5 C-16.34 4.67 -15.68 4.34 -15 4 C-15 3.01 -15 2.02 -15 1 C-8.375 0.75 -8.375 0.75 -5 3 C-5 2.34 -5 1.68 -5 1 C-3 0 -3 0 0 0 Z " fill="#4C4C51" transform="translate(288,77)"/>
<path d="M0 0 C1.98 0 3.96 0 6 0 C5.67 0.99 5.34 1.98 5 3 C4.01 2.34 3.02 1.68 2 1 C2 1.99 2 2.98 2 4 C2.66 4 3.32 4 4 4 C4 4.66 4 5.32 4 6 C3.34 6 2.68 6 2 6 C2 6.99 2 7.98 2 9 C4.0162233 8.28436734 4.0162233 8.28436734 6 7 C6.80528889 4.94999129 6.80528889 4.94999129 7 3 C8.66611905 2.957279 10.33382885 2.95936168 12 3 C13 4 13 4 13 11 C8.38 11 3.76 11 -1 11 C-0.67 7.37 -0.34 3.74 0 0 Z " fill="#7D90BC" transform="translate(207,109)"/>
<path d="M0 0 C0.33 0.99 0.66 1.98 1 3 C1.66 3.33 2.32 3.66 3 4 C2.67 6.31 2.34 8.62 2 11 C0.35 11.33 -1.3 11.66 -3 12 C-3 12.66 -3 13.32 -3 14 C-8.37305699 13.8238342 -8.37305699 13.8238342 -11 13 C-13 9.9375 -13 9.9375 -14 7 C-11.03 7.33 -8.06 7.66 -5 8 C-4.67 7.01 -4.34 6.02 -4 5 C-3.01 4.67 -2.02 4.34 -1 4 C-0.26676204 1.98491642 -0.26676204 1.98491642 0 0 Z " fill="#999EA8" transform="translate(286,66)"/>
<path d="M0 0 C0.66 0.99 1.32 1.98 2 3 C1.12988281 3.8353125 1.12988281 3.8353125 0.2421875 4.6875 C-0.53898437 5.450625 -1.32015625 6.21375 -2.125 7 C-3.27355469 8.11375 -3.27355469 8.11375 -4.4453125 9.25 C-6.98817984 11.72041786 -6.98817984 11.72041786 -8.01513672 14.08007812 C-9.44252981 16.76008148 -10.51548609 18.2158652 -13 20 C-18.98047153 21.01967234 -24.83433821 20.75328724 -30.875 20.5 C-32.53376874 20.45984238 -34.1926304 20.42334555 -35.8515625 20.390625 C-39.90334434 20.30275067 -43.95065088 20.16489127 -48 20 C-48.33 21.32 -48.66 22.64 -49 24 C-49 22.35 -49 20.7 -49 19 C-37.78 19 -26.56 19 -15 19 C-14.34 17.68 -13.68 16.36 -13 15 C-11.68725586 13.38427734 -11.68725586 13.38427734 -10.21484375 11.8359375 C-9.41916992 10.98902344 -9.41916992 10.98902344 -8.60742188 10.125 C-8.05634766 9.5475 -7.50527344 8.97 -6.9375 8.375 C-3.03429271 4.50673691 -3.03429271 4.50673691 0 0 Z " fill="#C2B7A8" transform="translate(169,109)"/>
<path d="M0 0 C0 2.64 0 5.28 0 8 C-1.62324086 8.22162329 -3.248721 8.42689803 -4.875 8.625 C-5.77992188 8.74101563 -6.68484375 8.85703125 -7.6171875 8.9765625 C-8.40351563 8.98429687 -9.18984375 8.99203125 -10 9 C-12 7 -12 7 -12.125 4.375 C-12.08375 3.59125 -12.0425 2.8075 -12 2 C-7.82262526 0.40861915 -4.46839215 -0.21278058 0 0 Z " fill="#657BAF" transform="translate(274,111)"/>
<path d="M0 0 C1.32 0 2.64 0 4 0 C5 3 5 3 5 4 C5.99 4.33 6.98 4.66 8 5 C3.43672206 8.53286034 -0.49633208 8.32374517 -6 8 C-5.67 7.34 -5.34 6.68 -5 6 C-7.64 5.01 -10.28 4.02 -13 3 C-12.67 2.34 -12.34 1.68 -12 1 C-11.21753906 1.01160156 -10.43507813 1.02320312 -9.62890625 1.03515625 C-8.61699219 1.04417969 -7.60507812 1.05320312 -6.5625 1.0625 C-5.04849609 1.07990234 -5.04849609 1.07990234 -3.50390625 1.09765625 C-1.05978933 1.28612676 -1.05978933 1.28612676 0 0 Z " fill="#757D8F" transform="translate(275,81)"/>
<path d="M0 0 C0.33 2.64 0.66 5.28 1 8 C0.34 8 -0.32 8 -1 8 C-1.04125 8.886875 -1.0825 9.77375 -1.125 10.6875 C-2.32128554 15.21629527 -4.26271887 16.29643492 -8 19 C-8.66 18.67 -9.32 18.34 -10 18 C-10 17.34 -10 16.68 -10 16 C-9.03513672 15.65582031 -9.03513672 15.65582031 -8.05078125 15.3046875 C-5.78384987 14.18062344 -5.78384987 14.18062344 -5.35546875 11.7578125 C-5.27232422 10.45457031 -5.27232422 10.45457031 -5.1875 9.125 C-5.11917969 8.26132813 -5.05085938 7.39765625 -4.98046875 6.5078125 C-4.99889036 4.14247734 -5.31370034 2.25273935 -6 0 C-3 -1 -3 -1 0 0 Z " fill="#586682" transform="translate(293,66)"/>
<path d="M0 0 C-0.433125 0.8353125 -0.433125 0.8353125 -0.875 1.6875 C-2.0440138 3.98473814 -2.0440138 3.98473814 -2.875 6.4375 C-5.29346167 11.94621824 -9.40084192 15.3415788 -14 19 C-8.31292517 0 -8.31292517 0 0 0 Z " fill="#C3A771" transform="translate(150,134)"/>
<path d="M0 0 C2 3 2 3 2 6 C2.99 6.33 3.98 6.66 5 7 C4.67 7.99 4.34 8.98 4 10 C1.9375 10.6875 1.9375 10.6875 0 11 C0.33 12.32 0.66 13.64 1 15 C-1.01822917 14.90234375 -3.03645833 14.8046875 -5.0546875 14.70703125 C-5.69664062 14.80371094 -6.33859375 14.90039062 -7 15 C-7.99 16.485 -7.99 16.485 -9 18 C-9.66 18 -10.32 18 -11 18 C-11 17.34 -11 16.68 -11 16 C-10.34 16 -9.68 16 -9 16 C-8.67 14.35 -8.34 12.7 -8 11 C-6.02 11 -4.04 11 -2 11 C-2.33 9.68 -2.66 8.36 -3 7 C-2.01 7 -1.02 7 0 7 C-0.66 5.02 -1.32 3.04 -2 1 C-1.34 0.67 -0.68 0.34 0 0 Z " fill="#8A8E8C" transform="translate(280,59)"/>
<path d="M0 0 C2.97 0.33 5.94 0.66 9 1 C8.34 3.97 7.68 6.94 7 10 C5.68 10.33 4.36 10.66 3 11 C2.01 10.34 1.02 9.68 0 9 C-0.41137202 5.96133201 -0.13193156 3.07840297 0 0 Z " fill="#A4B1D0" transform="translate(318,110)"/>
<path d="M0 0 C1.53202706 0.25195908 3.05257128 0.57596777 4.5625 0.9375 C5.38878906 1.13214844 6.21507812 1.32679687 7.06640625 1.52734375 C8.02353516 1.76130859 8.02353516 1.76130859 9 2 C8.01 4.64 7.02 7.28 6 10 C4.00045254 10.04254356 1.99958364 10.04080783 0 10 C-1 9 -1 9 -1.1328125 7.1875 C-1.13023437 6.465625 -1.12765625 5.74375 -1.125 5 C-1.12757813 4.278125 -1.13015625 3.55625 -1.1328125 2.8125 C-1 1 -1 1 0 0 Z " fill="#92A2C7" transform="translate(222,110)"/>
<path d="M0 0 C2.475 0.495 2.475 0.495 5 1 C5 1.66 5 2.32 5 3 C4.34 3 3.68 3 3 3 C2.67 3.99 2.34 4.98 2 6 C3.32 6 4.64 6 6 6 C6 4.02 6 2.04 6 0 C7.98 0 9.96 0 12 0 C12 2.64 12 5.28 12 8 C7.83861737 8.08159574 4.0527516 7.98248524 0 7 C0 4.69 0 2.38 0 0 Z " fill="#677DB0" transform="translate(249,112)"/>
<path d="M0 0 C0.33 0 0.66 0 1 0 C1 14.85 1 29.7 1 45 C0.01 45 -0.98 45 -2 45 C-2.02730408 43.43759968 -2.04653226 41.8750573 -2.0625 40.3125 C-2.07410156 39.44238281 -2.08570313 38.57226562 -2.09765625 37.67578125 C-2 35 -2 35 -1.51367188 32.7734375 C-0.90287726 29.47561105 -0.78345969 26.30186114 -0.68359375 22.94921875 C-0.66281265 22.29041214 -0.64203156 21.63160553 -0.62062073 20.95283508 C-0.55564511 18.86448815 -0.49648425 16.77602388 -0.4375 14.6875 C-0.39426521 13.2649622 -0.3506494 11.84243594 -0.30664062 10.41992188 C-0.20001784 6.94673703 -0.09860652 3.47342274 0 0 Z " fill="#7D90C4" transform="translate(293,135)"/>
<path d="M0 0 C0.66 0 1.32 0 2 0 C2.33 3.63 2.66 7.26 3 11 C-4.875 10.125 -4.875 10.125 -6 9 C-6.04063832 7.33382885 -6.042721 5.66611905 -6 4 C-4.7934375 3.566875 -4.7934375 3.566875 -3.5625 3.125 C-0.8673532 2.26737432 -0.8673532 2.26737432 0 0 Z " fill="#8D9EC4" transform="translate(308,109)"/>
<path d="M0 0 C-0.66 3.63 -1.32 7.26 -2 11 C-2.66 11 -3.32 11 -4 11 C-4 9.35 -4 7.7 -4 6 C-9.53601728 10.60136502 -14.39863498 15.46398272 -19 21 C-19 16.54470428 -16.02431905 14.57138542 -13.0625 11.5625 C-11.94248133 10.42456103 -10.82892315 9.28021875 -9.72265625 8.12890625 C-9.22515869 7.62431885 -8.72766113 7.11973145 -8.21508789 6.59985352 C-6.82049208 4.76364971 -6.41129731 3.25010987 -6 1 C-3.92446352 0.4465236 -2.15634036 0 0 0 Z " fill="#3B4561" transform="translate(176,108)"/>
<path d="M0 0 C3.3 0 6.6 0 10 0 C10.33 0.66 10.66 1.32 11 2 C12.64363134 2.72159424 14.31050386 3.39351421 16 4 C13 5 13 5 10 5 C10 5.66 10 6.32 10 7 C9.34 7 8.68 7 8 7 C8 7.66 8 8.32 8 9 C7.34 9 6.68 9 6 9 C6 8.34 6 7.68 6 7 C5.5875 7.515625 5.175 8.03125 4.75 8.5625 C4.1725 9.036875 3.595 9.51125 3 10 C0.8125 9.6875 0.8125 9.6875 -1 9 C-0.34 9 0.32 9 1 9 C1 8.34 1 7.68 1 7 C1.66 7 2.32 7 3 7 C2.34 5.68 1.68 4.36 1 3 C1.33 2.67 1.66 2.34 2 2 C1.34 1.34 0.68 0.68 0 0 Z " fill="#B0B5BF" transform="translate(267,46)"/>
<path d="M0 0 C0.66 0 1.32 0 2 0 C2 8.91 2 17.82 2 27 C1.67 27 1.34 27 1 27 C0.67 24.69 0.34 22.38 0 20 C-0.66 20 -1.32 20 -2 20 C-1.03644647 6.3667426 -1.03644647 6.3667426 0 0 Z " fill="#5D74B7" transform="translate(199,167)"/>
<path d="M0 0 C0.99 0 1.98 0 3 0 C4.03368414 11.48537938 4.03368414 11.48537938 0 16.75 C-0.9727562 17.85786122 -1.96368711 18.95135005 -3 20 C-4.41110894 17.17778212 -3.52254327 15.79744896 -2.625 12.8125 C-1.38797744 8.51963633 -0.49276241 4.43486173 0 0 Z " fill="#34468A" transform="translate(225,243)"/>
<path d="M0 0 C4.875 3.75 4.875 3.75 6 6 C7.65391846 6.39171753 9.32345271 6.72057545 11 7 C11.99 7.33 12.98 7.66 14 8 C13.67 8.66 13.34 9.32 13 10 C11.68 10 10.36 10 9 10 C10.32 10.33 11.64 10.66 13 11 C13 11.66 13 12.32 13 13 C14.32 13.33 15.64 13.66 17 14 C16.34 14.66 15.68 15.32 15 16 C12.09521493 15.03173831 10.00559746 13.89155159 7.4375 12.25 C6.25994141 11.51523438 6.25994141 11.51523438 5.05859375 10.765625 C1.71145739 7.89483632 0.93036501 4.18664253 0 0 Z " fill="#9098A8" transform="translate(254,73)"/>
<path d="M0 0 C5.41469542 -0.83303006 8.62183709 1.03445317 12.875 4.109375 C17.25228663 8.00387266 19.72035951 12.15208238 20.296875 18.0234375 C20.31065751 20.70413495 20.2246125 23.3296069 20 26 C19.67 26 19.34 26 19 26 C18.90203125 25.15695313 18.8040625 24.31390625 18.703125 23.4453125 C18.55359375 22.34960938 18.4040625 21.25390625 18.25 20.125 C18.11078125 19.03445312 17.9715625 17.94390625 17.828125 16.8203125 C17.31133825 13.87513928 17.31133825 13.87513928 14.984375 12.8046875 C14.00210937 12.40636719 14.00210937 12.40636719 13 12 C12.67 11.01 12.34 10.02 12 9 C12.66 9 13.32 9 14 9 C9.950809 4.16709462 6.03280791 2.6166348 0 1 C0 0.67 0 0.34 0 0 Z " fill="#818798" transform="translate(274,47)"/>
<path d="M0 0 C0.33 0 0.66 0 1 0 C1 10.56 1 21.12 1 32 C0.34 32 -0.32 32 -1 32 C-1.33 26.06 -1.66 20.12 -2 14 C-1.34 14 -0.68 14 0 14 C0 9.38 0 4.76 0 0 Z " fill="#213889" transform="translate(200,222)"/>
<path d="M0 0 C0.33 0.66 0.66 1.32 1 2 C3.02463255 2.65213292 3.02463255 2.65213292 5 3 C5 5.31 5 7.62 5 10 C3.35 9.67 1.7 9.34 0 9 C-0.33 9.66 -0.66 10.32 -1 11 C-2.32 11 -3.64 11 -5 11 C-4.67 10.34 -4.34 9.68 -4 9 C-3.34 9.33 -2.68 9.66 -2 10 C-2.04125 9.0925 -2.0825 8.185 -2.125 7.25 C-2.00468444 4.1217954 -1.6085292 2.61385994 0 0 Z " fill="#8D9DC4" transform="translate(176,109)"/>
<path d="M0 0 C7.5273523 3.13347921 7.5273523 3.13347921 9.5 6.75 C9.665 7.4925 9.83 8.235 10 9 C10.66 9 11.32 9 12 9 C12 9.66 12 10.32 12 11 C10.68 11.33 9.36 11.66 8 12 C8 11.34 8 10.68 8 10 C7.34 10 6.68 10 6 10 C5.67 9.34 5.34 8.68 5 8 C4.34 7.7525 3.68 7.505 3 7.25 C1 6 1 6 0.25 2.875 C0.1675 1.92625 0.085 0.9775 0 0 Z " fill="#A9ABA9" transform="translate(259,61)"/>
<path d="M0 0 C0 0.99 0 1.98 0 3 C-0.33 3.33 -0.66 3.66 -1 4 C-1.23287008 5.68183948 -1.41264166 7.3712416 -1.5625 9.0625 C-1.64628906 9.98160156 -1.73007813 10.90070313 -1.81640625 11.84765625 C-1.90728516 12.91306641 -1.90728516 12.91306641 -2 14 C-2.66 12.68 -3.32 11.36 -4 10 C-8.95532767 13.86757281 -12.96476648 18.18876004 -17 23 C-17 18.83510332 -15.28180778 17.85071395 -12.4375 14.875 C-7.97755974 10.13581625 -3.88985154 5.21652276 0 0 Z " fill="#30344C" transform="translate(228,265)"/>
<path d="M0 0 C0.33 0.66 0.66 1.32 1 2 C1.66 2 2.32 2 3 2 C3 7.94 3 13.88 3 20 C2.01 20 1.02 20 0 20 C0 13.4 0 6.8 0 0 Z " fill="#284294" transform="translate(323,222)"/>
<path d="M0 0 C0.33 0.66 0.66 1.32 1 2 C-0.24125182 4.61161731 -1.5310524 7.10501786 -2.9375 9.625 C-3.32357422 10.33140625 -3.70964844 11.0378125 -4.10742188 11.765625 C-5.06448696 13.51433651 -6.03134031 15.25768432 -7 17 C-10.78557181 15.51251262 -12.41567193 13.44650134 -14.6875 10.125 C-15.28949219 9.26132813 -15.89148438 8.39765625 -16.51171875 7.5078125 C-17.84851121 5.25526457 -18.55417894 3.55604076 -19 1 C-16.07380123 3.77814704 -13.8400219 6.88778187 -11.5 10.16015625 C-9.94946946 12.24629081 -9.94946946 12.24629081 -7 14 C-6.6596875 13.0409375 -6.6596875 13.0409375 -6.3125 12.0625 C-4.51434174 7.86679739 -2.26095979 3.96099444 0 0 Z " fill="#4761AC" transform="translate(259,202)"/>
<path d="M0 0 C1.67542976 0.28604898 3.34385343 0.61781233 5 1 C4.01 1.495 4.01 1.495 3 2 C3 4.31 3 6.62 3 9 C0.69 8.67 -1.62 8.34 -4 8 C-3.67 6.02 -3.34 4.04 -3 2 C-3.66 2 -4.32 2 -5 2 C-5 3.65 -5 5.3 -5 7 C-5.33 7 -5.66 7 -6 7 C-6 5.02 -6 3.04 -6 1 C-4.7934375 1.0309375 -4.7934375 1.0309375 -3.5625 1.0625 C-1.06645115 1.29633621 -1.06645115 1.29633621 0 0 Z " fill="#5971A9" transform="translate(243,111)"/>
<path d="M0 0 C1.25 3.125 1.25 3.125 2 6 C-2.87664009 6.34833144 -5.77050005 5.41685712 -10 3 C-8.5511811 -0.74278215 -8.5511811 -0.74278215 -6.125 -1.875 C-3.34373786 -2.03860366 -2.22097791 -1.70274973 0 0 Z " fill="#6C81B3" transform="translate(330,305)"/>
<path d="M0 0 C2.0245738 1.93254772 3.42105792 3.63158688 5 6 C7.93597539 6.38384509 10.68027373 6.603843 13.625 6.6875 C14.82769531 6.73874023 14.82769531 6.73874023 16.0546875 6.79101562 C18.03596318 6.87356878 20.01796037 6.93845916 22 7 C20.68 8.65 19.36 10.3 18 12 C17.34 11.67 16.68 11.34 16 11 C16.33 10.34 16.66 9.68 17 9 C15.89591797 9.08701172 15.89591797 9.08701172 14.76953125 9.17578125 C6.75856837 9.54616923 6.75856837 9.54616923 2.875 6.75 C1.24029048 4.35242604 0.31669506 2.85025556 0 0 Z " fill="#415191" transform="translate(178,279)"/>
<path d="M0 0 C0.9590625 0.2784375 0.9590625 0.2784375 1.9375 0.5625 C2.9584375 0.7790625 2.9584375 0.7790625 4 1 C4.33 0.67 4.66 0.34 5 0 C6.66617115 -0.04063832 8.33388095 -0.042721 10 0 C9.814375 0.61875 9.62875 1.2375 9.4375 1.875 C8.76313824 4.04160178 8.76313824 4.04160178 10 6 C9.34 6 8.68 6 8 6 C7.67 6.99 7.34 7.98 7 9 C7 8.34 7 7.68 7 7 C3.71303767 6.20046862 2.28976808 5.90341064 -1 7 C-1 6.34 -1 5.68 -1 5 C-0.34 5 0.32 5 1 5 C0.67 3.35 0.34 1.7 0 0 Z " fill="#6F84B5" transform="translate(228,304)"/>
<path d="M0 0 C0.66 0 1.32 0 2 0 C2.33 0.99 2.66 1.98 3 3 C5.50447516 4.21869929 5.50447516 4.21869929 8 5 C7.67 5.99 7.34 6.98 7 8 C5.34795544 8.70211894 3.68076231 9.36971413 2 10 C1.67 10.66 1.34 11.32 1 12 C0.01 11.67 -0.98 11.34 -2 11 C-1.34 11 -0.68 11 0 11 C0 7.37 0 3.74 0 0 Z " fill="#94A4C8" transform="translate(201,301)"/>
<path d="M0 0 C2.38564077 0.57584432 4.66682784 1.22227595 7 2 C7 3.32 7 4.64 7 6 C8.32 6 9.64 6 11 6 C11 6.66 11 7.32 11 8 C10.21625 7.835 9.4325 7.67 8.625 7.5 C5.33165804 6.87269677 3.20440957 7.14549078 0 8 C-0.79953138 4.71303767 -1.09658936 3.28976808 0 0 Z " fill="#8E9EC4" transform="translate(237,303)"/>
<path d="M0 0 C0.66 0 1.32 0 2 0 C2 0.66 2 1.32 2 2 C2.99 2.33 3.98 2.66 5 3 C4.34 3 3.68 3 3 3 C3.33 5.31 3.66 7.62 4 10 C1.03 10 -1.94 10 -5 10 C-4.01 9.01 -3.02 8.02 -2 7 C-2 6.34 -2 5.68 -2 5 C-2.66 4.67 -3.32 4.34 -4 4 C-4 3.34 -4 2.68 -4 2 C-2.02 2.495 -2.02 2.495 0 3 C0 2.01 0 1.02 0 0 Z " fill="#7F92BD" transform="translate(210,301)"/>
<path d="M0 0 C-0.375 1.9375 -0.375 1.9375 -1 4 C-4.00313748 5.50156874 -6.79067522 5.09281204 -10.125 5.0625 C-11.40632813 5.05347656 -12.68765625 5.04445313 -14.0078125 5.03515625 C-15.48894531 5.01775391 -15.48894531 5.01775391 -17 5 C-16.34 4.67 -15.68 4.34 -15 4 C-15 3.01 -15 2.02 -15 1 C-8.375 0.75 -8.375 0.75 -5 3 C-5 2.34 -5 1.68 -5 1 C-3 0 -3 0 0 0 Z " fill="#293246" transform="translate(288,77)"/>
<path d="M0 0 C0.625 2.5625 0.625 2.5625 1 5 C-2.75 6.125 -2.75 6.125 -5 5 C-5.33 5.66 -5.66 6.32 -6 7 C-6 6.34 -6 5.68 -6 5 C-6.66 5 -7.32 5 -8 5 C-8.33 3.68 -8.66 2.36 -9 1 C-2.25 -1.125 -2.25 -1.125 0 0 Z " fill="#716D4E" transform="translate(277,65)"/>
<path d="M0 0 C0.99 0.33 1.98 0.66 3 1 C2.814375 2.2375 2.62875 3.475 2.4375 4.75 C2.05288777 7.76279577 1.9125406 10.10010827 3 13 C1.68 12.67 0.36 12.34 -1 12 C-2.125 8.25 -2.125 8.25 -1 6 C-1.99 6 -2.98 6 -4 6 C-4 5.34 -4 4.68 -4 4 C-2.68 3.34 -1.36 2.68 0 2 C0 1.34 0 0.68 0 0 Z " fill="#BEC1C6" transform="translate(277,53)"/>
<path d="M0 0 C2.00720923 0.28674418 4.0085944 0.61866701 6 1 C6.33 2.32 6.66 3.64 7 5 C7.66 5 8.32 5 9 5 C9 5.66 9 6.32 9 7 C8.01 6.67 7.02 6.34 6 6 C6 5.34 6 4.68 6 4 C5.01 4 4.02 4 3 4 C2.67 4.33 2.34 4.66 2 5 C2.66 5.66 3.32 6.32 4 7 C2.125 7.625 2.125 7.625 0 8 C-0.66 7.34 -1.32 6.68 -2 6 C-1.44444444 1.44444444 -1.44444444 1.44444444 0 0 Z " fill="#5971A9" transform="translate(313,303)"/>
<path d="M0 0 C2.99332739 0.9977758 3.94766315 1.7522025 6 4 C5.67 4.99 5.34 5.98 5 7 C2.03 6.505 2.03 6.505 -1 6 C-1 6.99 -1 7.98 -1 9 C-2.98 9 -4.96 9 -7 9 C-7 8.34 -7 7.68 -7 7 C-5.35 7 -3.7 7 -2 7 C-1.34 4.69 -0.68 2.38 0 0 Z " fill="#7488B7" transform="translate(291,302)"/>
<path d="M0 0 C1.54023996 0.06950541 3.08334988 0.08452357 4.625 0.0625 C5.44226563 0.05347656 6.25953125 0.04445313 7.1015625 0.03515625 C7.72804688 0.02355469 8.35453125 0.01195313 9 0 C7 3 7 3 4 4 C2.43881572 4.06740865 0.8749748 4.08514456 -0.6875 4.0625 C-1.89986328 4.04896484 -1.89986328 4.04896484 -3.13671875 4.03515625 C-4.05904297 4.01775391 -4.05904297 4.01775391 -5 4 C-4.67 3.34 -4.34 2.68 -4 2 C-4.66 1.34 -5.32 0.68 -6 0 C-2.25 -1.125 -2.25 -1.125 0 0 Z " fill="#566785" transform="translate(274,85)"/>
<path d="M0 0 C1.2065625 0.0309375 1.2065625 0.0309375 2.4375 0.0625 C3.0625 2.4375 3.0625 2.4375 3.4375 5.0625 C2.7775 5.7225 2.1175 6.3825 1.4375 7.0625 C-0.6875 6.6875 -0.6875 6.6875 -2.5625 6.0625 C-2.94468767 4.40635343 -3.27645102 2.73792976 -3.5625 1.0625 C-2.5625 0.0625 -2.5625 0.0625 0 0 Z " fill="#A4B0D5" transform="translate(344.5625,133.9375)"/>
<path d="M0 0 C0.66 0.99 1.32 1.98 2 3 C-3.60627803 10.48071749 -3.60627803 10.48071749 -7.0234375 11.75390625 C-8.9375 12 -8.9375 12 -12 12 C-12 10.68 -12 9.36 -12 8 C-11.38511719 7.92523438 -10.77023438 7.85046875 -10.13671875 7.7734375 C-7.62524452 7.36487231 -5.37891772 6.91107487 -3 6 C-0.85334283 3.04765553 -0.85334283 3.04765553 0 0 Z " fill="#2F4087" transform="translate(155,283)"/>
<path d="M0 0 C-1.53416298 3.98882376 -4.4247074 7.64783382 -8 10 C-10.1953125 9.66796875 -10.1953125 9.66796875 -12 9 C-10.57189185 7.49105554 -9.13218981 5.99307655 -7.6875 4.5 C-6.88699219 3.6646875 -6.08648437 2.829375 -5.26171875 1.96875 C-3 0 -3 0 0 0 Z " fill="#E6C37A" transform="translate(182,99)"/>
<path d="M0 0 C0 0.99 0 1.98 0 3 C-2.01822917 2.90234375 -4.03645833 2.8046875 -6.0546875 2.70703125 C-6.69664062 2.80371094 -7.33859375 2.90039062 -8 3 C-8.99 4.485 -8.99 4.485 -10 6 C-10.66 6 -11.32 6 -12 6 C-12 5.34 -12 4.68 -12 4 C-11.34 4 -10.68 4 -10 4 C-9.67 2.35 -9.34 0.7 -9 -1 C-3.375 -2.25 -3.375 -2.25 0 0 Z " fill="#83806F" transform="translate(281,71)"/>
<path d="M0 0 C1.98 0 3.96 0 6 0 C5.67 1.32 5.34 2.64 5 4 C4.01 4 3.02 4 2 4 C2.33 5.65 2.66 7.3 3 9 C0.525 8.01 0.525 8.01 -2 7 C-2 5.35 -2 3.7 -2 2 C-1.34 2 -0.68 2 0 2 C0 1.34 0 0.68 0 0 Z " fill="#636B61" transform="translate(265,57)"/>
<path d="M0 0 C0.33 0.66 0.66 1.32 1 2 C1.66 2.33 2.32 2.66 3 3 C3 4.65 3 6.3 3 8 C2.34 8 1.68 8 1 8 C0.67 8.66 0.34 9.32 0 10 C0 9.34 0 8.68 0 8 C-1.32 8 -2.64 8 -4 8 C-4 7.34 -4 6.68 -4 6 C-3.01 6 -2.02 6 -1 6 C-1 5.34 -1 4.68 -1 4 C-1.99 4 -2.98 4 -4 4 C-4 3.34 -4 2.68 -4 2 C-2.68 2 -1.36 2 0 2 C0 1.34 0 0.68 0 0 Z " fill="#F2F4F8" transform="translate(226,301)"/>
<path d="M0 0 C1.98 0 3.96 0 6 0 C5.67 0.99 5.34 1.98 5 3 C4.01 2.34 3.02 1.68 2 1 C2 1.99 2 2.98 2 4 C2.66 4 3.32 4 4 4 C4 4.66 4 5.32 4 6 C3.34 6 2.68 6 2 6 C2 6.99 2 7.98 2 9 C3.32 8.34 4.64 7.68 6 7 C6 7.99 6 8.98 6 10 C4.02 10 2.04 10 0 10 C0 6.7 0 3.4 0 0 Z " fill="#405B9C" transform="translate(207,109)"/>
<path d="M0 0 C0.33 0 0.66 0 1 0 C1.13277344 0.61488281 1.26554687 1.22976562 1.40234375 1.86328125 C1.57894531 2.67152344 1.75554687 3.47976562 1.9375 4.3125 C2.19853516 5.51326172 2.19853516 5.51326172 2.46484375 6.73828125 C2.99886159 9.145401 2.99886159 9.145401 4 12 C1.625 11.6875 1.625 11.6875 -1 11 C-1.66 10.01 -2.32 9.02 -3 8 C-2.5390625 5.95703125 -2.5390625 5.95703125 -1.625 3.8125 C-1.32851563 3.09707031 -1.03203125 2.38164063 -0.7265625 1.64453125 C-0.36691406 0.83048828 -0.36691406 0.83048828 0 0 Z " fill="#101A2D" transform="translate(258,58)"/>
<path d="M0 0 C4.92142857 4.54285714 4.92142857 4.54285714 5.34375 7 C5.84739329 9.24041674 5.84739329 9.24041674 8.28515625 10.484375 C9.20167969 10.90203125 10.11820312 11.3196875 11.0625 11.75 C12.44115234 12.39195313 12.44115234 12.39195313 13.84765625 13.046875 C14.91306641 13.51867187 14.91306641 13.51867187 16 14 C13.589802 14.86616491 12.42372482 15.1663451 10 14.21484375 C5.53523009 11.36332078 2.47317897 8.84330881 0 4 C0 2.68 0 1.36 0 0 Z " fill="#66728A" transform="translate(252,73)"/>
<path d="M0 0 C3.63 0.66 7.26 1.32 11 2 C11.33 3.65 11.66 5.3 12 7 C9.03824877 6.38722388 7.61941217 5.74627478 5 4 C5 3.34 5 2.68 5 2 C3.02 2 1.04 2 -1 2 C-0.67 1.34 -0.34 0.68 0 0 Z " fill="#748096" transform="translate(272,49)"/>
<path d="M0 0 C0.99 0 1.98 0 3 0 C3.08086147 1.79093191 3.13912702 3.58289628 3.1875 5.375 C3.22230469 6.37273437 3.25710937 7.37046875 3.29296875 8.3984375 C3.19628906 9.25695312 3.09960938 10.11546875 3 11 C2.01 11.66 1.02 12.32 0 13 C0 8.71 0 4.42 0 0 Z " fill="#32468F" transform="translate(232,235)"/>
<path d="M0 0 C0.99 0.33 1.98 0.66 3 1 C2.01 1.495 2.01 1.495 1 2 C1.66 2.66 2.32 3.32 3 4 C2.360625 4.103125 1.72125 4.20625 1.0625 4.3125 C0.381875 4.539375 -0.29875 4.76625 -1 5 C-1.33 5.99 -1.66 6.98 -2 8 C-2.99 8.33 -3.98 8.66 -5 9 C-5.33 7.35 -5.66 5.7 -6 4 C-3.1875 1.9375 -3.1875 1.9375 0 0 Z " fill="#717B93" transform="translate(263,48)"/>
<path d="M0 0 C-0.165 0.598125 -0.33 1.19625 -0.5 1.8125 C-1.1114124 4.11344336 -1.1114124 4.11344336 -1 7 C-3.97 6.505 -3.97 6.505 -7 6 C-7 4.02 -7 2.04 -7 0 C-3.98968256 -0.93423645 -3.13349732 -1.04449911 0 0 Z " fill="#5F76AD" transform="translate(262,304)"/>
<path d="M0 0 C0.53625 0.165 1.0725 0.33 1.625 0.5 C4.45886009 1.09660212 7.1119806 1.0656368 10 1 C10 1.33 10 1.66 10 2 C8.35 2 6.7 2 5 2 C5 3.98 5 5.96 5 8 C3.33333333 8 1.66666667 8 0 8 C0 7.01 0 6.02 0 5 C0.66 5 1.32 5 2 5 C2 4.34 2 3.68 2 3 C1.34 3 0.68 3 0 3 C0 2.01 0 1.02 0 0 Z " fill="#D7DDEA" transform="translate(209,110)"/>
<path d="M0 0 C0.33 0.99 0.66 1.98 1 3 C0.04465526 4.75146536 -0.91694965 6.50306466 -1.9921875 8.18359375 C-3.24942864 10.26501653 -3.24942864 10.26501653 -4 14 C-7.3 14 -10.6 14 -14 14 C-14 13.67 -14 13.34 -14 13 C-11.03 13 -8.06 13 -5 13 C-4.9175 11.96875 -4.835 10.9375 -4.75 9.875 C-3.89746699 5.47024613 -2.65758511 3.51487063 0 0 Z " fill="#70727B" transform="translate(256,53)"/>
<path d="M0 0 C1.65 0 3.3 0 5 0 C4.67 0.99 4.34 1.98 4 3 C4 5.42797311 4.50085685 7.62907005 5 10 C3.35 10 1.7 10 0 10 C0.33 9.01 0.66 8.02 1 7 C0.67 6.01 0.34 5.02 0 4 C0 2.68 0 1.36 0 0 Z " fill="#38508A" transform="translate(289,109)"/>
<path d="M0 0 C2.97 0 5.94 0 9 0 C9.33 1.65 9.66 3.3 10 5 C8.02 5 6.04 5 4 5 C4 4.34 4 3.68 4 3 C2.68 2.67 1.36 2.34 0 2 C0 1.34 0 0.68 0 0 Z " fill="#3A4B6B" transform="translate(264,78)"/>
<path d="M0 0 C0.66 0 1.32 0 2 0 C2 0.66 2 1.32 2 2 C2.66 2 3.32 2 4 2 C4 1.34 4 0.68 4 0 C4.66 0 5.32 0 6 0 C6.33 0.99 6.66 1.98 7 3 C6.195625 3.12375 5.39125 3.2475 4.5625 3.375 C3.2940625 3.684375 3.2940625 3.684375 2 4 C1.67 4.66 1.34 5.32 1 6 C-1.31 5.34 -3.62 4.68 -6 4 C-6 3.67 -6 3.34 -6 3 C-4.35 3 -2.7 3 -1 3 C-0.67 2.01 -0.34 1.02 0 0 Z " fill="#9BA1AA" transform="translate(271,53)"/>
<path d="M0 0 C2.5 1.375 2.5 1.375 5 3 C5 3.66 5 4.32 5 5 C3.125 6.0625 3.125 6.0625 1 7 C0.34 6.67 -0.32 6.34 -1 6 C-1 7.65 -1 9.3 -1 11 C-1.99 10.34 -2.98 9.68 -4 9 C-3.67 7.35 -3.34 5.7 -3 4 C-1.02 4.495 -1.02 4.495 1 5 C0.67 3.35 0.34 1.7 0 0 Z " fill="#B1B5BC" transform="translate(283,51)"/>
<path d="M0 0 C2.0625 0.1875 2.0625 0.1875 4 1 C4.33 1.99 4.66 2.98 5 4 C4.34 4 3.68 4 3 4 C2.67 4.33 2.34 4.66 2 5 C2.66 5.66 3.32 6.32 4 7 C0.25 8.125 0.25 8.125 -2 7 C-2.125 4.625 -2.125 4.625 -2 2 C-1.34 1.34 -0.68 0.68 0 0 Z " fill="#5972AA" transform="translate(279,303)"/>
<path d="M0 0 C0.66 0.66 1.32 1.32 2 2 C1.625 5.125 1.625 5.125 1 8 C-0.65 7.67 -2.3 7.34 -4 7 C-4 5.68 -4 4.36 -4 3 C-3.01 3 -2.02 3 -1 3 C-0.67 2.01 -0.34 1.02 0 0 Z " fill="#ACB1BA" transform="translate(290,59)"/>
<path d="M0 0 C1.65 0 3.3 0 5 0 C5.66 1.65 6.32 3.3 7 5 C2.25 6.125 2.25 6.125 0 5 C0 3.35 0 1.7 0 0 Z " fill="#C4C7CC" transform="translate(282,57)"/>
<path d="M0 0 C0.66 0.33 1.32 0.66 2 1 C1.67 2.32 1.34 3.64 1 5 C1.99 4.34 2.98 3.68 4 3 C2.68775452 6.93673644 1.08089673 9.22719294 -2 12 C-3.15957207 8.52128379 -2.77456651 7.65780355 -1.5625 4.3125 C-1.13130859 3.10013672 -1.13130859 3.10013672 -0.69140625 1.86328125 C-0.46324219 1.24839844 -0.23507813 0.63351563 0 0 Z " fill="#5E6580" transform="translate(137,145)"/>
<path d="M0 0 C0.66 0.474375 1.32 0.94875 2 1.4375 C5.7933028 3.41317854 8.75524068 3.64027463 13 4 C12.67 4.99 12.34 5.98 12 7 C7.33174173 7.70731186 4.96719769 5.92277529 1.35546875 3.2890625 C0.90816406 2.86367188 0.46085937 2.43828125 0 2 C0 1.34 0 0.68 0 0 Z " fill="#253781" transform="translate(112,287)"/>
<path d="M0 0 C0.66 0.33 1.32 0.66 2 1 C-0.64 4.63 -3.28 8.26 -6 12 C-6.33 11.34 -6.66 10.68 -7 10 C-5.06305458 6.19528578 -3.29078593 2.79716804 0 0 Z " fill="#EFEFF0" transform="translate(146,134)"/>
<path d="M0 0 C1.32 0.33 2.64 0.66 4 1 C2.02 3.31 0.04 5.62 -2 8 C-2.99 7.67 -3.98 7.34 -5 7 C-5 6.34 -5 5.68 -5 5 C-4.360625 4.731875 -3.72125 4.46375 -3.0625 4.1875 C-0.66868314 3.11332248 -0.66868314 3.11332248 0 0 Z " fill="#6D7589" transform="translate(288,77)"/>
<path d="M0 0 C2.31 0 4.62 0 7 0 C7 0.66 7 1.32 7 2 C6.34 2 5.68 2 5 2 C5 2.66 5 3.32 5 4 C4.34 4 3.68 4 3 4 C3 3.34 3 2.68 3 2 C2.5875 2.515625 2.175 3.03125 1.75 3.5625 C1.1725 4.036875 0.595 4.51125 0 5 C-2.1875 4.6875 -2.1875 4.6875 -4 4 C-3.34 4 -2.68 4 -2 4 C-2 3.34 -2 2.68 -2 2 C-1.34 2 -0.68 2 0 2 C0 1.34 0 0.68 0 0 Z " fill="#C0C4C9" transform="translate(270,51)"/>
<path d="M0 0 C0.66 0 1.32 0 2 0 C2 0.99 2 1.98 2 3 C1.34 3 0.68 3 0 3 C0 3.66 0 4.32 0 5 C1.65 4.34 3.3 3.68 5 3 C5 3.66 5 4.32 5 5 C5.66 5.33 6.32 5.66 7 6 C2.545 6.495 2.545 6.495 -2 7 C-1.125 1.125 -1.125 1.125 0 0 Z " fill="#5B635A" transform="translate(269,72)"/>
<path d="M0 0 C0.66 0 1.32 0 2 0 C2 2.31 2 4.62 2 7 C0.68 7 -0.64 7 -2 7 C-2.125 4.625 -2.125 4.625 -2 2 C-1.34 1.34 -0.68 0.68 0 0 Z " fill="#8698C1" transform="translate(309,304)"/>
<path d="M0 0 C-1.32 1.32 -2.64 2.64 -4 4 C-4.66 3.67 -5.32 3.34 -6 3 C-5.67 2.34 -5.34 1.68 -5 1 C-8.3 1 -11.6 1 -15 1 C-15 0.67 -15 0.34 -15 0 C-13.25093341 -0.19601608 -11.50068154 -0.38147403 -9.75 -0.5625 C-8.77546875 -0.66691406 -7.8009375 -0.77132813 -6.796875 -0.87890625 C-4.2368648 -0.98974468 -2.41851841 -0.77738092 0 0 Z " fill="#22347F" transform="translate(200,287)"/>
<path d="M0 0 C5.79732739 4.27171492 5.79732739 4.27171492 7 8 C6.67 8.99 6.34 9.98 6 11 C1.79760004 8.19840003 1.06321392 4.78446265 0 0 Z " fill="#B0B4BC" transform="translate(254,73)"/>
<path d="M0 0 C1.98 0.99 1.98 0.99 4 2 C3.4140625 8.15234375 3.4140625 8.15234375 3 10 C2.01 10.495 2.01 10.495 1 11 C0 8 0 8 0.5 6.0625 C1.07702481 3.68227266 0.74022853 2.30293321 0 0 Z " fill="#2E374B" transform="translate(287,66)"/>
<path d="M0 0 C1.32 0 2.64 0 4 0 C4 0.66 4 1.32 4 2 C4.66 2 5.32 2 6 2 C6.66 1.34 7.32 0.68 8 0 C8 1.98 8 3.96 8 6 C5.07120629 5.37240135 2.63904371 4.41377341 0 3 C0.99 3 1.98 3 3 3 C3 2.34 3 1.68 3 1 C2.01 0.67 1.02 0.34 0 0 Z " fill="#CFD6E6" transform="translate(258,305)"/>
<path d="M0 0 C0.99 0 1.98 0 3 0 C3 3.96 3 7.92 3 12 C2.67 12 2.34 12 2 12 C2 10.02 2 8.04 2 6 C1.34 6 0.68 6 0 6 C0 4.02 0 2.04 0 0 Z " fill="#3D4F93" transform="translate(225,243)"/>
<path d="M0 0 C1.65 0 3.3 0 5 0 C4.01 2.97 3.02 5.94 2 9 C1.34 8.67 0.68 8.34 0 8 C0 5.36 0 2.72 0 0 Z " fill="#3C599B" transform="translate(322,112)"/>
<path d="M0 0 C1.4540625 0.0309375 1.4540625 0.0309375 2.9375 0.0625 C2.9375 0.3925 2.9375 0.7225 2.9375 1.0625 C1.2875 1.0625 -0.3625 1.0625 -2.0625 1.0625 C-2.0625 3.0425 -2.0625 5.0225 -2.0625 7.0625 C-3.3825 7.0625 -4.7025 7.0625 -6.0625 7.0625 C-6.0625 5.4125 -6.0625 3.7625 -6.0625 2.0625 C-5.7325 2.7225 -5.4025 3.3825 -5.0625 4.0625 C-4.4025 4.0625 -3.7425 4.0625 -3.0625 4.0625 C-3.3925 3.0725 -3.7225 2.0825 -4.0625 1.0625 C-3.0625 0.0625 -3.0625 0.0625 0 0 Z " fill="#DFE4EE" transform="translate(257.0625,110.9375)"/>
<path d="M0 0 C1.32 0 2.64 0 4 0 C4 1.32 4 2.64 4 4 C3.34 4 2.68 4 2 4 C2 4.66 2 5.32 2 6 C2.66 6.33 3.32 6.66 4 7 C2.68 7 1.36 7 0 7 C0 4.69 0 2.38 0 0 Z " fill="#576EA7" transform="translate(312,112)"/>
<path d="M0 0 C0.66 0 1.32 0 2 0 C2 3.3 2 6.6 2 10 C1.34 10 0.68 10 0 10 C-0.33 8.02 -0.66 6.04 -1 4 C-1.99 3.67 -2.98 3.34 -4 3 C-4.33 3.66 -4.66 4.32 -5 5 C-5 4.01 -5 3.02 -5 2 C-3.35 2 -1.7 2 0 2 C0 1.34 0 0.68 0 0 Z " fill="#AEBAD5" transform="translate(254,301)"/>
<path d="M0 0 C3.3125 -0.1875 3.3125 -0.1875 7 0 C7.99 0.99 8.98 1.98 10 3 C4.06 3.495 4.06 3.495 -2 4 C-1.34 3.67 -0.68 3.34 0 3 C0 2.01 0 1.02 0 0 Z " fill="#2D3D5B" transform="translate(273,78)"/>
<path d="M0 0 C0.66 0 1.32 0 2 0 C2 0.66 2 1.32 2 2 C2.66 2 3.32 2 4 2 C3.67 3.65 3.34 5.3 3 7 C2.01 6.67 1.02 6.34 0 6 C0 4.02 0 2.04 0 0 Z " fill="#CDD4E5" transform="translate(232,113)"/>
<path d="M0 0 C1.32 0.66 2.64 1.32 4 2 C1.03 4.475 1.03 4.475 -2 7 C-2.66 6.67 -3.32 6.34 -4 6 C-2.68 4.02 -1.36 2.04 0 0 Z " fill="#E5C075" transform="translate(190,89)"/>
<path d="M0 0 C1.9375 0.625 1.9375 0.625 4 2 C4.75 5.125 4.75 5.125 5 8 C3.0625 7.375 3.0625 7.375 1 6 C0.25 2.875 0.25 2.875 0 0 Z " fill="#818896" transform="translate(259,61)"/>
<path d="M0 0 C0.66 0 1.32 0 2 0 C1.67 2.64 1.34 5.28 1 8 C0.01 8 -0.98 8 -2 8 C-2.20086443 4.28400809 -2.1519437 3.22791555 0 0 Z " fill="#364762" transform="translate(263,55)"/>
<path d="M0 0 C0.99 0.33 1.98 0.66 3 1 C2.67 2.65 2.34 4.3 2 6 C0.02 6 -1.96 6 -4 6 C-4 5.34 -4 4.68 -4 4 C-2.68 3.34 -1.36 2.68 0 2 C0 1.34 0 0.68 0 0 Z " fill="#C8CBCF" transform="translate(277,53)"/>
<path d="M0 0 C0.66 0.33 1.32 0.66 2 1 C1.0409375 2.3921875 1.0409375 2.3921875 0.0625 3.8125 C-2.08622093 6.84219943 -2.08622093 6.84219943 -3 10 C-3.66 10 -4.32 10 -5 10 C-4.67 8.02 -4.34 6.04 -4 4 C-3.34 4 -2.68 4 -2 4 C-1.34 2.68 -0.68 1.36 0 0 Z " fill="#22357F" transform="translate(238,287)"/>
<path d="M0 0 C-0.33 2.31 -0.66 4.62 -1 7 C-1.33 6.34 -1.66 5.68 -2 5 C-2.66 5 -3.32 5 -4 5 C-4.33 3.68 -4.66 2.36 -5 1 C-2 0 -2 0 0 0 Z " fill="#646646" transform="translate(273,65)"/>
<path d="M0 0 C0 1.65 0 3.3 0 5 C-1.65 5 -3.3 5 -5 5 C-4.6875 3.0625 -4.6875 3.0625 -4 1 C-1 0 -1 0 0 0 Z " fill="#EBEEF5" transform="translate(303,304)"/>
<path d="M0 0 C0.66 0 1.32 0 2 0 C1.71125 0.556875 1.4225 1.11375 1.125 1.6875 C-0.05960441 4.02806407 -0.05960441 4.02806407 -1 6.6875 C-2 9 -2 9 -4 10 C-2.99806563 6.20696275 -2.18975773 3.28463659 0 0 Z " fill="#B29761" transform="translate(148,134)"/>
<path d="M0 0 C0.33 0.66 0.66 1.32 1 2 C1.99 2 2.98 2 4 2 C4.33 3.32 4.66 4.64 5 6 C3.35 6.33 1.7 6.66 0 7 C0 4.69 0 2.38 0 0 Z " fill="#D4DAE9" transform="translate(264,113)"/>
<path d="M0 0 C1.98 0.99 1.98 0.99 4 2 C4 2.99 4 3.98 4 5 C3.34 4.67 2.68 4.34 2 4 C1.67 4.99 1.34 5.98 1 7 C0.67 7 0.34 7 0 7 C0 4.69 0 2.38 0 0 Z " fill="#EDEFF5" transform="translate(278,113)"/>
<path d="M0 0 C0.66 0.99 1.32 1.98 2 3 C-0.31 4.98 -2.62 6.96 -5 9 C-3.96846241 4.87384964 -2.71595986 3.1540179 0 0 Z " fill="#DFBB71" transform="translate(169,109)"/>
<path d="M0 0 C1.65 0.33 3.3 0.66 5 1 C5 1.66 5 2.32 5 3 C3.35 3.33 1.7 3.66 0 4 C0 4.66 0 5.32 0 6 C-0.66 5.67 -1.32 5.34 -2 5 C-1.34 3.35 -0.68 1.7 0 0 Z " fill="#8B8F9B" transform="translate(283,74)"/>
<path d="M0 0 C0.33 0 0.66 0 1 0 C1 2.31 1 4.62 1 7 C0.01 7.495 0.01 7.495 -1 8 C-1.66 7.67 -2.32 7.34 -3 7 C-3 6.34 -3 5.68 -3 5 C-2.34 5 -1.68 5 -1 5 C-0.67 3.35 -0.34 1.7 0 0 Z " fill="#DEE3EE" transform="translate(317,111)"/>
<path d="M0 0 C3.36720387 1.39332574 4.9859524 2.9789286 7 6 C4 6 4 6 1.8125 4.125 C0 2 0 2 0 0 Z " fill="#425CA7" transform="translate(329,72)"/>
<path d="M0 0 C1.65 0 3.3 0 5 0 C5.33 0.99 5.66 1.98 6 3 C4.02 3 2.04 3 0 3 C0 2.01 0 1.02 0 0 Z " fill="#8698C0" transform="translate(325,305)"/>
<path d="M0 0 C0.66 0.33 1.32 0.66 2 1 C2 2.65 2 4.3 2 6 C1.67 5.34 1.34 4.68 1 4 C-0.65 4.66 -2.3 5.32 -4 6 C-2.68 4.02 -1.36 2.04 0 0 Z " fill="#293C87" transform="translate(237,255)"/>
<path d="M0 0 C0.66 1.32 1.32 2.64 2 4 C1.01 5.485 1.01 5.485 0 7 C-0.99 6.01 -1.98 5.02 -3 4 C-2.67 3.01 -2.34 2.02 -2 1 C-1.67 1.33 -1.34 1.66 -1 2 C-0.67 1.34 -0.34 0.68 0 0 Z " fill="#CCAF76" transform="translate(294,109)"/>
<path d="M0 0 C0.33 0.99 0.66 1.98 1 3 C1.66 3 2.32 3 3 3 C2.67 3.66 2.34 4.32 2 5 C0.35 4.67 -1.3 4.34 -3 4 C-2.67 3.01 -2.34 2.02 -2 1 C-1.34 0.67 -0.68 0.34 0 0 Z " fill="#425566" transform="translate(264,68)"/>
</svg>
